<svg xmlns="http://www.w3.org/2000/svg" viewBox="0 0 908 412" width="908" height="412" role="img">
<style>
text { fill: #52514e; font: 12px -apple-system, 'Segoe UI', Helvetica, Arial, sans-serif; }
.title { fill: #0b0b0b; font-weight: 600; }
.muted { fill: #8a8880; font-size: 11px; }
.grid { stroke: #e4e2dd; stroke-width: 1; }
.cell-label { fill: #ffffff; font-size: 11px; }
.cell-label-dim { fill: #0b0b0b; font-size: 11px; }
.ev-passed { fill: #0072b2; }
.ev-failed { fill: #d55e00; }
.ev-not-evidenced { fill: #cbc9c2; }
.ev-unrealized { fill: #e8e6e0; }
.ev-no-cases { fill: #f4f2ec; }
.cell-required { stroke: #52514e; stroke-width: 1.2; }
.cell-optional { stroke: #cbc9c2; stroke-width: 1; stroke-dasharray: 3 2; }
.bar-passed { fill: #0072b2; }
.bar-failed { fill: #d55e00; }
.bar-errored { fill: #e69f00; }
.bar-na { fill: #cbc9c2; }
.seg-label { fill: #ffffff; font-size: 10.5px; }
.seg-label-dim { fill: #0b0b0b; font-size: 10.5px; }
@media (prefers-color-scheme: dark) {
text { fill: #c3c2b7; }
.title { fill: #ffffff; }
.muted { fill: #8f8e85; }
.grid { stroke: #3a3a38; }
.cell-label { fill: #ffffff; }
.cell-label-dim { fill: #e8e6e0; }
.ev-passed { fill: #3987e5; }
.ev-failed { fill: #e5484d; }
.ev-not-evidenced { fill: #4a4a47; }
.ev-unrealized { fill: #3a3a38; }
.ev-no-cases { fill: #2e2e2c; }
.cell-required { stroke: #c3c2b7; }
.cell-optional { stroke: #4a4a47; }
.bar-passed { fill: #3987e5; }
.bar-failed { fill: #e5484d; }
.bar-errored { fill: #d9a514; }
.bar-na { fill: #4a4a47; }
.seg-label-dim { fill: #e8e6e0; }
}
</style>

<text x="24" y="28" class="title">Schedule outcomes by chapter — ehrbase-rs 3.9.0</text>

<rect x="24" y="38" width="14" height="14" rx="3" class="bar-passed"/><text x="42" y="49" class="muted">passed</text><rect x="103.2" y="38" width="14" height="14" rx="3" class="bar-failed"/><text x="121.2" y="49" class="muted">failed</text><rect x="182.4" y="38" width="14" height="14" rx="3" class="bar-errored"/><text x="200.4" y="49" class="muted">errored</text><rect x="268.8" y="38" width="14" height="14" rx="3" class="bar-na"/><text x="286.8" y="49" class="muted">N/A (cited)</text><text x="166" y="81" text-anchor="end">EHR</text>
<rect x="174" y="64" width="601.2121212121212" height="26" class="bar-passed"/>

<text x="474.6060606060606" y="81" class="seg-label" text-anchor="middle">124</text><rect x="775.2121212121212" y="64" width="38.78787878787879" height="26" class="bar-na"/>

<text x="794.6060606060606" y="81" class="seg-label-dim" text-anchor="middle">8</text><text x="822" y="81" class="muted">132</text>
<text x="166" y="115" text-anchor="end">Definitions</text>
<rect x="174" y="98" width="169.6969696969697" height="26" class="bar-passed"/>

<text x="258.8484848484849" y="115" class="seg-label" text-anchor="middle">35</text><rect x="343.6969696969697" y="98" width="77.57575757575758" height="26" class="bar-na"/>

<text x="382.4848484848485" y="115" class="seg-label-dim" text-anchor="middle">16</text><text x="429.27272727272725" y="115" class="muted">51</text>
<text x="166" y="149" text-anchor="end">Query</text>
<rect x="174" y="132" width="72.72727272727273" height="26" class="bar-passed"/>

<text x="210.36363636363637" y="149" class="seg-label" text-anchor="middle">15</text><text x="254.72727272727275" y="149" class="muted">15</text>
<text x="166" y="183" text-anchor="end">Demographic</text>
<rect x="174" y="166" width="58.18181818181819" height="26" class="bar-passed"/>

<text x="203.0909090909091" y="183" class="seg-label" text-anchor="middle">12</text><rect x="232.1818181818182" y="166" width="58.18181818181819" height="26" class="bar-na"/>

<text x="261.27272727272725" y="183" class="seg-label-dim" text-anchor="middle">12</text><text x="298.3636363636364" y="183" class="muted">24</text>
<text x="166" y="217" text-anchor="end">Admin</text>
<rect x="174" y="200" width="9.696969696969697" height="26" class="bar-passed"/>

<rect x="183.6969696969697" y="200" width="77.57575757575758" height="26" class="bar-na"/>

<text x="222.48484848484847" y="217" class="seg-label-dim" text-anchor="middle">16</text><text x="269.27272727272725" y="217" class="muted">18</text>
<text x="166" y="251" text-anchor="end">Messaging</text>
<rect x="174" y="234" width="67.87878787878788" height="26" class="bar-na"/>

<text x="207.93939393939394" y="251" class="seg-label-dim" text-anchor="middle">14</text><text x="249.87878787878788" y="251" class="muted">14</text>
<text x="166" y="285" text-anchor="end">Content validation</text>
<rect x="174" y="268" width="596.3636363636364" height="26" class="bar-passed"/>

<text x="472.1818181818182" y="285" class="seg-label" text-anchor="middle">123</text><text x="778.3636363636364" y="285" class="muted">123</text>
<text x="166" y="319" text-anchor="end">Simplified formats</text>
<rect x="174" y="302" width="261.8181818181818" height="26" class="bar-passed"/>

<text x="304.9090909090909" y="319" class="seg-label" text-anchor="middle">54</text><rect x="435.8181818181818" y="302" width="4.848484848484849" height="26" class="bar-na"/>

<text x="448.6666666666667" y="319" class="muted">55</text>
<text x="166" y="353" text-anchor="end">Security &amp; privacy</text>
<rect x="174" y="336" width="24.242424242424242" height="26" class="bar-passed"/>

<text x="186.12121212121212" y="353" class="seg-label" text-anchor="middle">5</text><text x="206.24242424242425" y="353" class="muted">5</text>
<text x="166" y="387" text-anchor="end">Signing</text>
<rect x="174" y="370" width="29.090909090909093" height="26" class="bar-passed"/>

<text x="188.54545454545456" y="387" class="seg-label" text-anchor="middle">6</text><rect x="203.0909090909091" y="370" width="9.696969696969697" height="26" class="bar-na"/>

<text x="220.78787878787878" y="387" class="muted">8</text>
</svg>
