<svg xmlns="http://www.w3.org/2000/svg" viewBox="0 0 760 440" role="img" aria-label="Latency ranges per operation class">
<style>
text { fill: #52514e; font: 12px -apple-system, 'Segoe UI', Helvetica, Arial, sans-serif; }
.title { fill: #0b0b0b; font-weight: 600; }
.muted { fill: #8a8880; font-size: 11px; }
.grid { stroke: #e4e2dd; stroke-width: 1; }
.s1 { fill: #2a78d6; } .s1s { stroke: #2a78d6; }
.s2 { fill: #1baf7a; } .s2s { stroke: #1baf7a; }
@media (prefers-color-scheme: dark) {
text { fill: #c3c2b7; }
.title { fill: #ffffff; }
.muted { fill: #8f8e85; }
.grid { stroke: #3a3a38; }
.s1 { fill: #3987e5; } .s1s { stroke: #3987e5; }
.s2 { fill: #199e70; } .s2s { stroke: #199e70; }
}
</style>
<text x="16" y="22" class="title">Latency by operation class — p50 → p99.9 (log scale)</text>
<line class="grid" x1="170.0" y1="42" x2="170.0" y2="414.0"/>
<text class="muted" x="170.0" y="430.0" text-anchor="middle">10.0ms</text>
<line class="grid" x1="240.7" y1="42" x2="240.7" y2="414.0"/>
<text class="muted" x="240.7" y="430.0" text-anchor="middle">20.0ms</text>
<line class="grid" x1="334.3" y1="42" x2="334.3" y2="414.0"/>
<text class="muted" x="334.3" y="430.0" text-anchor="middle">50.0ms</text>
<line class="grid" x1="405.0" y1="42" x2="405.0" y2="414.0"/>
<text class="muted" x="405.0" y="430.0" text-anchor="middle">100.0ms</text>
<line class="grid" x1="475.7" y1="42" x2="475.7" y2="414.0"/>
<text class="muted" x="475.7" y="430.0" text-anchor="middle">200.0ms</text>
<line class="grid" x1="569.3" y1="42" x2="569.3" y2="414.0"/>
<text class="muted" x="569.3" y="430.0" text-anchor="middle">500.0ms</text>
<line class="grid" x1="640.0" y1="42" x2="640.0" y2="414.0"/>
<text class="muted" x="640.0" y="430.0" text-anchor="middle">1.0s</text>
<text x="160.0" y="59.0" text-anchor="end">aql-patient</text>
<rect class="s1" x="337.4" y="51.0" width="211.5" height="8" rx="4"/>
<line class="s1s" x1="436.8" y1="47.0" x2="436.8" y2="63.0" stroke-width="2"/>
<text class="muted" x="333.4" y="59.0" text-anchor="end">51.6ms</text>
<text class="muted" x="552.8" y="59.0">409.3ms</text>
<text x="160.0" y="85.0" text-anchor="end">aql-ward</text>
<rect class="s1" x="284.8" y="77.0" width="144.3" height="8" rx="4"/>
<line class="s1s" x1="429.1" y1="73.0" x2="429.1" y2="89.0" stroke-width="2"/>
<text class="muted" x="280.8" y="85.0" text-anchor="end">30.8ms</text>
<text class="muted" x="433.1" y="85.0">126.6ms</text>
<text x="160.0" y="111.0" text-anchor="end">comp-create-large</text>
<rect class="s1" x="417.1" y="103.0" width="81.0" height="8" rx="4"/>
<line class="s1s" x1="498.1" y1="99.0" x2="498.1" y2="115.0" stroke-width="2"/>
<text class="muted" x="413.1" y="111.0" text-anchor="end">112.6ms</text>
<text class="muted" x="502.1" y="111.0">249.1ms</text>
<text x="160.0" y="137.0" text-anchor="end">comp-create-small</text>
<rect class="s1" x="342.9" y="129.0" width="131.3" height="8" rx="4"/>
<line class="s1s" x1="454.3" y1="125.0" x2="454.3" y2="141.0" stroke-width="2"/>
<text class="muted" x="338.9" y="137.0" text-anchor="end">54.4ms</text>
<text class="muted" x="478.2" y="137.0">197.0ms</text>
<text x="160.0" y="163.0" text-anchor="end">comp-read-latest</text>
<rect class="s1" x="297.2" y="155.0" width="143.5" height="8" rx="4"/>
<line class="s1s" x1="433.7" y1="151.0" x2="433.7" y2="167.0" stroke-width="2"/>
<text class="muted" x="293.2" y="163.0" text-anchor="end">34.8ms</text>
<text class="muted" x="444.8" y="163.0">142.0ms</text>
<text x="160.0" y="189.0" text-anchor="end">comp-read-version</text>
<rect class="s1" x="289.1" y="181.0" width="154.8" height="8" rx="4"/>
<line class="s1s" x1="433.0" y1="177.0" x2="433.0" y2="193.0" stroke-width="2"/>
<text class="muted" x="285.1" y="189.0" text-anchor="end">32.1ms</text>
<text class="muted" x="447.8" y="189.0">146.3ms</text>
<text x="160.0" y="215.0" text-anchor="end">comp-update</text>
<rect class="s1" x="347.1" y="207.0" width="131.4" height="8" rx="4"/>
<line class="s1s" x1="478.5" y1="203.0" x2="478.5" y2="219.0" stroke-width="2"/>
<text class="muted" x="343.1" y="215.0" text-anchor="end">56.7ms</text>
<text class="muted" x="482.5" y="215.0">205.4ms</text>
<text x="160.0" y="241.0" text-anchor="end">contribution-commit</text>
<rect class="s1" x="330.2" y="233.0" width="138.7" height="8" rx="4"/>
<line class="s1s" x1="468.8" y1="229.0" x2="468.8" y2="245.0" stroke-width="2"/>
<text class="muted" x="326.2" y="241.0" text-anchor="end">48.0ms</text>
<text class="muted" x="472.8" y="241.0">186.9ms</text>
<text x="160.0" y="267.0" text-anchor="end">dir-read</text>
<rect class="s1" x="265.9" y="259.0" width="151.5" height="8" rx="4"/>
<line class="s1s" x1="417.4" y1="255.0" x2="417.4" y2="271.0" stroke-width="2"/>
<text class="muted" x="261.9" y="267.0" text-anchor="end">25.6ms</text>
<text class="muted" x="421.4" y="267.0">112.9ms</text>
<text x="160.0" y="293.0" text-anchor="end">dir-update</text>
<rect class="s1" x="328.2" y="285.0" width="128.9" height="8" rx="4"/>
<line class="s1s" x1="457.1" y1="281.0" x2="457.1" y2="297.0" stroke-width="2"/>
<text class="muted" x="324.2" y="293.0" text-anchor="end">47.1ms</text>
<text class="muted" x="461.1" y="293.0">166.7ms</text>
<text x="160.0" y="319.0" text-anchor="end">ehr-create</text>
<rect class="s1" x="372.2" y="311.0" width="21.4" height="8" rx="4"/>
<line class="s1s" x1="393.6" y1="307.0" x2="393.6" y2="323.0" stroke-width="2"/>
<text class="muted" x="368.2" y="319.0" text-anchor="end">72.5ms</text>
<text class="muted" x="397.6" y="319.0">89.4ms</text>
<text x="160.0" y="345.0" text-anchor="end">ehr-read</text>
<rect class="s1" x="420.6" y="337.0" width="24.0" height="8" rx="4"/>
<line class="s1s" x1="444.5" y1="333.0" x2="444.5" y2="349.0" stroke-width="2"/>
<text class="muted" x="416.6" y="345.0" text-anchor="end">116.5ms</text>
<text class="muted" x="448.5" y="345.0">147.3ms</text>
<text x="160.0" y="371.0" text-anchor="end">history-read</text>
<rect class="s1" x="289.8" y="363.0" width="100.3" height="8" rx="4"/>
<line class="s1s" x1="390.2" y1="359.0" x2="390.2" y2="375.0" stroke-width="2"/>
<text class="muted" x="285.8" y="371.0" text-anchor="end">32.4ms</text>
<text class="muted" x="394.2" y="371.0">86.5ms</text>
<text x="160.0" y="397.0" text-anchor="end">status-update</text>
<rect class="s1" x="330.1" y="389.0" width="59.6" height="8" rx="4"/>
<line class="s1s" x1="389.7" y1="385.0" x2="389.7" y2="401.0" stroke-width="2"/>
<text class="muted" x="326.1" y="397.0" text-anchor="end">48.0ms</text>
<text class="muted" x="393.7" y="397.0">86.1ms</text>
</svg>
