<svg xmlns="http://www.w3.org/2000/svg" viewBox="0 0 760 642" width="760" height="642" role="img">
<style>
text { fill: #52514e; font: 12px -apple-system, 'Segoe UI', Helvetica, Arial, sans-serif; }
.title { fill: #0b0b0b; font-weight: 600; }
.muted { fill: #8a8880; font-size: 11px; }
.grid { stroke: #e4e2dd; stroke-width: 1; }
.p50 { fill: #7db4ea; } .p90 { fill: #3d7fd0; } .p99 { fill: #1b5cab; }
.measured { fill: #2a78d6; }
.floor { fill: none; stroke: #8a8880; stroke-width: 1.5; stroke-dasharray: 4 3; }
.earned { fill: #1baf7a; font-weight: 600; }
.notearned { fill: #b3261e; font-weight: 600; }
.slo { stroke: #b3261e; stroke-width: 1.5; stroke-dasharray: 6 4; }
.slotext { fill: #b3261e; font-size: 11px; }
.sut { stroke: #2a78d6; fill: none; stroke-width: 1.8; }
.db { stroke: #8a8880; fill: none; stroke-width: 1.6; stroke-dasharray: 5 3; }
.warm { fill: #efede8; }
.curve { stroke: #2a78d6; fill: none; stroke-width: 2; }
.cmp { stroke: #8a8880; fill: none; stroke-width: 2; stroke-dasharray: 7 4; }
.cmpfill { fill: #8a8880; }
.knee { stroke: #1baf7a; stroke-width: 2; stroke-dasharray: 2 3; }
@media (prefers-color-scheme: dark) {
text { fill: #c3c2b7; }
.title { fill: #ffffff; }
.muted { fill: #8f8e85; }
.grid { stroke: #3a3a38; }
.p50 { fill: #3d5f82; } .p90 { fill: #3987e5; } .p99 { fill: #9ec7ef; }
.measured { fill: #3987e5; }
.floor { stroke: #8f8e85; }
.earned { fill: #26c78d; }
.notearned { fill: #e5484d; }
.slo { stroke: #e5484d; }
.slotext { fill: #e5484d; }
.sut { stroke: #3987e5; }
.db { stroke: #8f8e85; }
.warm { fill: #2a2a28; }
.curve { stroke: #3987e5; }
.cmp { stroke: #8f8e85; }
.cmpfill { fill: #8f8e85; }
.knee { stroke: #26c78d; }
}
</style>
<text x="24" y="28" class="title">Resource telemetry — class POC measured run (PERF-hospital_sim-class_POC)</text>
<text x="24" y="44" class="muted">Sampled every 10 s across the whole window · measured context, never a verdict input — the class is earned on latency, errors and offered load alone</text>
<line x1="24" y1="62.0" x2="46.0" y2="62.0" class="sut"/><text x="52.0" y="66.0" class="muted">SUT container</text>
<line x1="170" y1="62.0" x2="192.0" y2="62.0" class="db"/><text x="198.0" y="66.0" class="muted">database container</text>
<rect x="344" y="58" width="14" height="10" class="warm"/><text x="364" y="66.0" class="muted">warmup</text>
<text x="86" y="103.0" class="muted">CPU (% of one core)</text>
<rect x="86" y="110.0" width="49.1" height="110" class="warm"/>
<line x1="86" y1="220.0" x2="724" y2="220.0" class="grid"/><text x="78.0" y="224.0" class="muted" text-anchor="end">0%</text>
<line x1="86" y1="165.0" x2="724" y2="165.0" class="grid"/><text x="78.0" y="169.0" class="muted" text-anchor="end">250%</text>
<line x1="86" y1="110.0" x2="724" y2="110.0" class="grid"/><text x="78.0" y="114.0" class="muted" text-anchor="end">500%</text>
<path d="M87.6,215.9 L89.3,217.4 L90.9,217.1 L92.5,218.3 L94.2,218.6 L95.8,218.4 L97.5,217.8 L99.1,219.1 L100.7,218.6 L102.4,217.6 L104.0,218.9 L105.6,218.9 L107.3,217.8 L108.9,216.9 L110.5,218.8 L112.2,219.1 L113.8,218.6 L115.4,219.2 L117.1,218.5 L118.7,218.9 L120.4,218.8 L122.0,219.2 L123.6,218.8 L125.3,219.2 L126.9,219.0 L128.5,218.9 L130.2,218.5 L131.8,219.1 L133.4,218.9 L135.1,218.3 L136.7,218.7 L138.3,219.2 L140.0,218.6 L141.6,219.2 L143.3,219.0 L144.9,218.9 L146.5,219.0 L148.2,219.2 L149.8,218.7 L151.4,217.9 L153.1,219.0 L154.7,219.4 L156.3,218.7 L158.0,218.6 L159.6,219.2 L161.3,219.2 L162.9,219.2 L164.5,218.8 L166.2,219.1 L167.8,218.7 L169.4,219.3 L171.1,219.3 L172.7,219.1 L174.3,218.1 L176.0,218.5 L177.6,218.9 L179.2,218.8 L180.9,218.9 L182.5,218.9 L184.2,217.6 L185.8,218.9 L187.4,218.7 L189.1,218.4 L190.7,219.1 L192.3,219.1 L194.0,218.6 L195.6,219.0 L197.2,218.8 L198.9,219.3 L200.5,219.1 L202.1,219.0 L203.8,219.2 L205.4,218.9 L207.1,218.9 L208.7,218.7 L210.3,219.3 L212.0,218.6 L213.6,219.1 L215.2,218.8 L216.9,218.9 L218.5,219.1 L220.1,218.6 L221.8,217.8 L223.4,218.2 L225.1,218.7 L226.7,219.0 L228.3,218.9 L230.0,219.2 L231.6,219.0 L233.2,219.2 L234.9,218.6 L236.5,218.9 L238.1,219.1 L239.8,218.9 L241.4,219.0 L243.0,218.9 L244.7,219.1 L246.3,218.6 L248.0,218.9 L249.6,218.5 L251.2,218.8 L252.9,218.9 L254.5,219.1 L256.1,219.1 L257.8,218.2 L259.4,219.3 L261.0,218.7 L262.7,219.1 L264.3,219.0 L265.9,218.7 L267.6,219.1 L269.2,219.0 L270.9,218.7 L272.5,219.3 L274.1,218.8 L275.8,219.4 L277.4,218.7 L279.0,219.2 L280.7,218.8 L282.3,219.4 L283.9,218.9 L285.6,218.8 L287.2,219.0 L288.9,218.7 L290.5,218.2 L292.1,218.8 L293.8,219.2 L295.4,218.6 L297.0,218.9 L298.7,217.9 L300.3,218.7 L301.9,219.1 L303.6,218.5 L305.2,219.3 L306.8,218.9 L308.5,219.3 L310.1,218.7 L311.8,219.2 L313.4,218.6 L315.0,218.7 L316.7,219.4 L318.3,218.9 L319.9,218.9 L321.6,218.5 L323.2,218.3 L324.8,219.0 L326.5,218.2 L328.1,219.1 L329.7,219.1 L331.4,219.3 L333.0,219.1 L334.7,219.0 L336.3,219.3 L337.9,218.7 L339.6,218.8 L341.2,218.9 L342.8,218.5 L344.5,218.6 L346.1,218.9 L347.7,218.8 L349.4,219.2 L351.0,219.3 L352.7,218.8 L354.3,219.0 L355.9,218.6 L357.6,219.3 L359.2,218.1 L360.8,219.0 L362.5,219.2 L364.1,218.3 L365.7,219.0 L367.4,219.1 L369.0,219.1 L370.6,219.0 L372.3,218.9 L373.9,218.9 L375.6,219.1 L377.2,219.0 L378.8,218.9 L380.5,218.8 L382.1,217.8 L383.7,219.3 L385.4,218.8 L387.0,218.9 L388.6,218.6 L390.3,219.3 L391.9,219.0 L393.5,218.7 L395.2,219.4 L396.8,219.3 L398.5,219.1 L400.1,219.1 L401.7,219.1 L403.4,219.2 L405.0,219.1 L406.6,219.1 L408.3,219.4 L409.9,219.0 L411.5,219.5 L413.2,219.1 L414.8,219.2 L416.5,218.6 L418.1,219.2 L419.7,218.7 L421.4,218.1 L423.0,219.3 L424.6,218.9 L426.3,219.2 L427.9,218.8 L429.5,218.9 L431.2,219.2 L432.8,219.0 L434.4,218.2 L436.1,219.0 L437.7,219.4 L439.4,219.1 L441.0,219.1 L442.6,218.9 L444.3,219.4 L445.9,219.3 L447.5,219.2 L449.2,219.1 L450.8,218.9 L452.4,218.9 L454.1,219.0 L455.7,219.1 L457.3,219.4 L459.0,219.1 L460.6,218.2 L462.3,219.2 L463.9,218.7 L465.5,219.2 L467.2,218.9 L468.8,219.0 L470.4,219.2 L472.1,219.1 L473.7,218.9 L475.3,219.1 L477.0,218.6 L478.6,218.9 L480.3,219.5 L481.9,218.8 L483.5,219.0 L485.2,218.8 L486.8,219.4 L488.4,218.5 L490.1,219.4 L491.7,218.2 L493.3,218.9 L495.0,218.5 L496.6,218.4 L498.2,219.1 L499.9,219.6 L501.5,219.0 L503.2,219.3 L504.8,219.0 L506.4,219.3 L508.1,219.2 L509.7,219.1 L511.3,218.8 L513.0,219.5 L514.6,219.1 L516.2,219.1 L517.9,219.0 L519.5,218.8 L521.1,218.7 L522.8,218.8 L524.4,219.4 L526.1,219.3 L527.7,219.0 L529.3,219.5 L531.0,218.6 L532.6,218.8 L534.2,217.7 L535.9,219.4 L537.5,218.9 L539.1,219.3 L540.8,219.1 L542.4,218.9 L544.1,219.0 L545.7,219.1 L547.3,219.0 L549.0,219.1 L550.6,218.6 L552.2,219.3 L553.9,219.0 L555.5,219.3 L557.1,218.6 L558.8,219.4 L560.4,218.9 L562.0,219.0 L563.7,219.1 L565.3,219.3 L567.0,219.1 L568.6,218.8 L570.2,218.9 L571.9,218.9 L573.5,218.5 L575.1,219.2 L576.8,218.5 L578.4,218.8 L580.0,219.0 L581.7,219.0 L583.3,219.2 L584.9,219.3 L586.6,218.9 L588.2,219.4 L589.9,219.4 L591.5,219.4 L593.1,219.4 L594.8,219.3 L596.4,219.3 L598.0,218.7 L599.7,219.3 L601.3,219.0 L602.9,219.3 L604.6,219.4 L606.2,219.7 L607.9,219.5 L609.5,219.6 L611.1,219.3 L612.8,219.4 L614.4,219.4 L616.0,219.2 L617.7,219.5 L619.3,219.7 L620.9,219.4 L622.6,219.6 L624.2,219.4 L625.8,219.2 L627.5,219.4 L629.1,219.6 L630.8,219.4 L632.4,219.5 L634.0,219.2 L635.7,219.5 L637.3,219.3 L638.9,219.4 L640.6,219.4 L642.2,219.4 L643.8,219.4 L645.5,219.3 L647.1,219.4 L648.7,219.4 L650.4,218.9 L652.0,219.0 L653.7,219.4 L655.3,218.9 L656.9,219.4 L658.6,219.3 L660.2,219.3 L661.8,219.2 L663.5,219.2 L665.1,219.1 L666.7,219.2 L668.4,219.1 L670.0,219.2 L671.7,218.9 L673.3,219.0 L674.9,219.2 L676.6,219.4 L678.2,219.1 L679.8,219.3 L681.5,219.2 L683.1,218.9 L684.7,218.6 L686.4,219.4 L688.0,218.8 L689.6,219.0 L691.3,219.0 L692.9,218.0 L694.6,219.1 L696.2,219.1 L697.8,219.1 L699.5,219.2 L701.1,218.7 L702.7,219.2 L704.4,219.2 L706.0,219.2 L707.6,219.5 L709.3,219.3 L710.9,219.2 L712.5,218.5 L714.2,218.9 L715.8,219.2 L717.5,218.6 L719.1,218.7 L720.7,218.6 L722.4,219.0 L724.0,218.9" class="sut"/>
<path d="M87.6,219.3 L89.3,200.0 L90.9,192.8 L92.5,193.4 L94.2,212.6 L95.8,196.1 L97.5,206.6 L99.1,197.0 L100.7,198.8 L102.4,201.9 L104.0,198.3 L105.6,209.6 L107.3,191.7 L108.9,200.1 L110.5,210.9 L112.2,194.4 L113.8,219.6 L115.4,195.4 L117.1,218.2 L118.7,191.9 L120.4,219.7 L122.0,191.4 L123.6,203.8 L125.3,207.1 L126.9,199.0 L128.5,208.6 L130.2,191.9 L131.8,197.6 L133.4,214.0 L135.1,192.0 L136.7,218.5 L138.3,191.7 L140.0,219.6 L141.6,191.0 L143.3,219.7 L144.9,189.0 L146.5,197.3 L148.2,211.4 L149.8,189.9 L151.4,169.6 L153.1,207.7 L154.7,210.6 L156.3,196.3 L158.0,187.9 L159.6,219.7 L161.3,186.7 L162.9,219.6 L164.5,196.3 L166.2,205.7 L167.8,187.3 L169.4,215.9 L171.1,192.0 L172.7,189.5 L174.3,211.8 L176.0,184.5 L177.6,218.1 L179.2,185.8 L180.9,204.1 L182.5,199.2 L184.2,199.4 L185.8,195.5 L187.4,194.0 L189.1,207.5 L190.7,188.9 L192.3,211.5 L194.0,185.4 L195.6,207.6 L197.2,192.2 L198.9,187.9 L200.5,207.8 L202.1,199.1 L203.8,202.7 L205.4,198.9 L207.1,196.7 L208.7,199.3 L210.3,192.4 L212.0,209.3 L213.6,186.7 L215.2,215.4 L216.9,182.9 L218.5,219.5 L220.1,198.6 L221.8,156.3 L223.4,190.0 L225.1,180.5 L226.7,200.8 L228.3,198.6 L230.0,196.9 L231.6,206.8 L233.2,211.1 L234.9,186.0 L236.5,185.7 L238.1,212.8 L239.8,179.3 L241.4,201.6 L243.0,191.1 L244.7,201.3 L246.3,193.7 L248.0,176.8 L249.6,198.7 L251.2,191.9 L252.9,213.9 L254.5,187.1 L256.1,209.3 L257.8,184.8 L259.4,205.4 L261.0,191.1 L262.7,180.7 L264.3,203.7 L265.9,187.0 L267.6,198.9 L269.2,198.1 L270.9,173.2 L272.5,217.0 L274.1,180.0 L275.8,211.2 L277.4,182.0 L279.0,207.2 L280.7,185.5 L282.3,203.4 L283.9,198.2 L285.6,177.0 L287.2,219.7 L288.9,178.7 L290.5,196.3 L292.1,197.1 L293.8,211.4 L295.4,181.1 L297.0,184.8 L298.7,204.3 L300.3,184.6 L301.9,219.7 L303.6,173.2 L305.2,218.2 L306.8,180.9 L308.5,216.9 L310.1,179.5 L311.8,190.1 L313.4,198.9 L315.0,180.2 L316.7,209.3 L318.3,177.6 L319.9,178.2 L321.6,219.6 L323.2,176.6 L324.8,216.3 L326.5,170.8 L328.1,218.3 L329.7,175.2 L331.4,194.1 L333.0,208.6 L334.7,184.7 L336.3,211.5 L337.9,179.8 L339.6,207.9 L341.2,186.9 L342.8,202.9 L344.5,192.9 L346.1,180.0 L347.7,219.7 L349.4,176.3 L351.0,217.3 L352.7,186.7 L354.3,211.1 L355.9,187.1 L357.6,208.0 L359.2,157.4 L360.8,203.9 L362.5,203.7 L364.1,178.8 L365.7,182.0 L367.4,219.7 L369.0,177.8 L370.6,219.6 L372.3,192.3 L373.9,198.2 L375.6,185.2 L377.2,208.7 L378.8,178.0 L380.5,184.0 L382.1,202.0 L383.7,179.3 L385.4,202.5 L387.0,194.7 L388.6,179.9 L390.3,219.6 L391.9,194.1 L393.5,203.3 L395.2,189.6 L396.8,216.0 L398.5,184.7 L400.1,186.7 L401.7,213.1 L403.4,184.3 L405.0,219.7 L406.6,178.8 L408.3,219.8 L409.9,183.2 L411.5,217.2 L413.2,184.8 L414.8,192.0 L416.5,210.5 L418.1,186.6 L419.7,197.4 L421.4,180.5 L423.0,214.8 L424.6,176.5 L426.3,219.7 L427.9,175.8 L429.5,198.0 L431.2,205.6 L432.8,191.3 L434.4,177.4 L436.1,205.4 L437.7,190.6 L439.4,208.9 L441.0,204.4 L442.6,197.0 L444.3,200.6 L445.9,204.0 L447.5,182.6 L449.2,219.3 L450.8,179.1 L452.4,195.1 L454.1,203.8 L455.7,183.6 L457.3,192.4 L459.0,208.0 L460.6,207.0 L462.3,190.3 L463.9,202.8 L465.5,195.1 L467.2,199.0 L468.8,203.2 L470.4,177.4 L472.1,217.2 L473.7,182.7 L475.3,192.5 L477.0,201.5 L478.6,178.3 L480.3,210.6 L481.9,186.2 L483.5,204.1 L485.2,189.3 L486.8,201.2 L488.4,200.0 L490.1,196.3 L491.7,201.3 L493.3,174.9 L495.0,214.9 L496.6,174.6 L498.2,186.0 L499.9,219.8 L501.5,183.5 L503.2,203.4 L504.8,194.2 L506.4,203.5 L508.1,198.3 L509.7,219.6 L511.3,180.4 L513.0,214.3 L514.6,182.9 L516.2,189.3 L517.9,201.4 L519.5,184.3 L521.1,201.4 L522.8,184.9 L524.4,204.5 L526.1,197.5 L527.7,178.3 L529.3,219.8 L531.0,168.5 L532.6,210.3 L534.2,177.0 L535.9,212.5 L537.5,186.7 L539.1,207.6 L540.8,191.3 L542.4,180.9 L544.1,200.7 L545.7,195.9 L547.3,179.4 L549.0,219.8 L550.6,178.4 L552.2,219.7 L553.9,179.9 L555.5,215.5 L557.1,178.7 L558.8,209.8 L560.4,193.3 L562.0,205.0 L563.7,191.8 L565.3,219.7 L567.0,165.8 L568.6,196.3 L570.2,199.5 L571.9,199.5 L573.5,174.3 L575.1,219.2 L576.8,168.0 L578.4,219.6 L580.0,183.6 L581.7,201.3 L583.3,190.8 L584.9,203.2 L586.6,189.9 L588.2,187.9 L589.9,219.8 L591.5,188.2 L593.1,198.0 L594.8,208.1 L596.4,184.7 L598.0,219.7 L599.7,190.1 L601.3,208.8 L602.9,192.6 L604.6,219.7 L606.2,201.7 L607.9,207.3 L609.5,212.7 L611.1,199.2 L612.8,219.7 L614.4,197.2 L616.0,199.3 L617.7,214.9 L619.3,198.1 L620.9,219.8 L622.6,196.0 L624.2,219.7 L625.8,196.6 L627.5,219.8 L629.1,196.3 L630.8,203.3 L632.4,213.9 L634.0,197.5 L635.7,215.8 L637.3,195.6 L638.9,219.8 L640.6,192.3 L642.2,208.9 L643.8,204.2 L645.5,189.4 L647.1,219.7 L648.7,201.5 L650.4,207.5 L652.0,195.7 L653.7,211.4 L655.3,191.2 L656.9,210.7 L658.6,193.9 L660.2,187.9 L661.8,216.3 L663.5,181.0 L665.1,181.1 L666.7,219.1 L668.4,202.4 L670.0,201.3 L671.7,197.0 L673.3,190.6 L674.9,194.2 L676.6,207.0 L678.2,188.3 L679.8,191.4 L681.5,210.4 L683.1,185.7 L684.7,184.0 L686.4,184.6 L688.0,219.7 L689.6,181.9 L691.3,199.5 L692.9,199.9 L694.6,195.3 L696.2,196.0 L697.8,191.3 L699.5,211.1 L701.1,185.4 L702.7,210.0 L704.4,178.1 L706.0,191.6 L707.6,219.8 L709.3,186.4 L710.9,201.2 L712.5,181.4 L714.2,198.4 L715.8,193.3 L717.5,213.8 L719.1,173.7 L720.7,188.0 L722.4,197.6 L724.0,184.8" class="db"/>
<text x="86" y="239.0" class="muted">Resident memory</text>
<rect x="86" y="246.0" width="49.1" height="110" class="warm"/>
<line x1="86" y1="356.0" x2="724" y2="356.0" class="grid"/><text x="78.0" y="360.0" class="muted" text-anchor="end">0 B</text>
<line x1="86" y1="301.0" x2="724" y2="301.0" class="grid"/><text x="78.0" y="305.0" class="muted" text-anchor="end">2.5 GB</text>
<line x1="86" y1="246.0" x2="724" y2="246.0" class="grid"/><text x="78.0" y="250.0" class="muted" text-anchor="end">5.0 GB</text>
<path d="M87.6,324.5 L89.3,324.5 L90.9,324.5 L92.5,324.5 L94.2,324.5 L95.8,324.5 L97.5,324.5 L99.1,324.5 L100.7,325.0 L102.4,325.0 L104.0,325.0 L105.6,325.0 L107.3,325.0 L108.9,325.0 L110.5,325.0 L112.2,325.0 L113.8,325.0 L115.4,325.0 L117.1,325.0 L118.7,325.0 L120.4,325.0 L122.0,325.0 L123.6,325.0 L125.3,325.0 L126.9,325.0 L128.5,325.0 L130.2,324.9 L131.8,325.0 L133.4,324.9 L135.1,325.0 L136.7,324.9 L138.3,324.9 L140.0,324.9 L141.6,324.9 L143.3,324.9 L144.9,324.9 L146.5,324.9 L148.2,324.9 L149.8,324.9 L151.4,324.9 L153.1,324.9 L154.7,324.9 L156.3,324.9 L158.0,324.9 L159.6,324.9 L161.3,324.9 L162.9,324.9 L164.5,324.9 L166.2,324.9 L167.8,324.9 L169.4,324.9 L171.1,324.9 L172.7,324.9 L174.3,324.9 L176.0,324.9 L177.6,324.9 L179.2,324.9 L180.9,324.9 L182.5,324.9 L184.2,324.9 L185.8,324.9 L187.4,324.9 L189.1,324.9 L190.7,324.9 L192.3,324.9 L194.0,324.9 L195.6,324.9 L197.2,324.9 L198.9,324.9 L200.5,324.9 L202.1,324.9 L203.8,324.9 L205.4,324.9 L207.1,324.9 L208.7,324.9 L210.3,324.9 L212.0,324.9 L213.6,324.9 L215.2,324.9 L216.9,324.9 L218.5,324.9 L220.1,324.9 L221.8,324.9 L223.4,324.9 L225.1,324.9 L226.7,324.9 L228.3,324.9 L230.0,324.9 L231.6,324.9 L233.2,324.9 L234.9,324.9 L236.5,324.9 L238.1,324.9 L239.8,324.9 L241.4,324.9 L243.0,324.9 L244.7,324.9 L246.3,324.9 L248.0,324.9 L249.6,324.9 L251.2,324.9 L252.9,324.9 L254.5,324.9 L256.1,324.9 L257.8,324.8 L259.4,324.8 L261.0,324.8 L262.7,324.8 L264.3,324.8 L265.9,324.8 L267.6,324.8 L269.2,324.8 L270.9,324.8 L272.5,324.8 L274.1,324.8 L275.8,324.8 L277.4,324.8 L279.0,324.8 L280.7,324.8 L282.3,324.8 L283.9,324.8 L285.6,324.8 L287.2,324.8 L288.9,324.8 L290.5,324.8 L292.1,324.8 L293.8,324.8 L295.4,324.8 L297.0,324.8 L298.7,324.8 L300.3,324.8 L301.9,324.8 L303.6,324.8 L305.2,324.8 L306.8,324.8 L308.5,324.8 L310.1,324.8 L311.8,324.8 L313.4,324.8 L315.0,324.8 L316.7,324.8 L318.3,324.8 L319.9,324.8 L321.6,324.8 L323.2,324.8 L324.8,324.8 L326.5,324.8 L328.1,324.8 L329.7,324.8 L331.4,324.8 L333.0,324.8 L334.7,324.8 L336.3,324.8 L337.9,324.8 L339.6,324.8 L341.2,324.8 L342.8,324.8 L344.5,324.8 L346.1,324.8 L347.7,324.8 L349.4,324.8 L351.0,324.8 L352.7,324.8 L354.3,324.8 L355.9,324.8 L357.6,324.8 L359.2,324.7 L360.8,324.8 L362.5,324.8 L364.1,324.8 L365.7,324.8 L367.4,324.8 L369.0,324.8 L370.6,324.8 L372.3,324.8 L373.9,324.8 L375.6,324.8 L377.2,324.8 L378.8,324.8 L380.5,324.8 L382.1,324.8 L383.7,324.8 L385.4,324.8 L387.0,324.8 L388.6,324.8 L390.3,324.8 L391.9,324.8 L393.5,324.8 L395.2,324.8 L396.8,324.8 L398.5,324.8 L400.1,324.8 L401.7,324.8 L403.4,324.8 L405.0,324.8 L406.6,324.8 L408.3,324.8 L409.9,324.8 L411.5,324.8 L413.2,324.8 L414.8,324.8 L416.5,324.8 L418.1,324.8 L419.7,324.8 L421.4,324.8 L423.0,324.8 L424.6,324.8 L426.3,324.8 L427.9,324.8 L429.5,324.8 L431.2,324.8 L432.8,324.8 L434.4,324.8 L436.1,324.8 L437.7,324.8 L439.4,324.8 L441.0,324.8 L442.6,324.8 L444.3,324.8 L445.9,324.8 L447.5,324.8 L449.2,324.8 L450.8,324.7 L452.4,324.8 L454.1,324.8 L455.7,324.8 L457.3,324.8 L459.0,324.8 L460.6,324.8 L462.3,324.8 L463.9,324.8 L465.5,324.8 L467.2,324.8 L468.8,324.8 L470.4,324.8 L472.1,324.8 L473.7,324.8 L475.3,324.8 L477.0,324.8 L478.6,324.8 L480.3,324.8 L481.9,324.8 L483.5,324.8 L485.2,324.8 L486.8,324.8 L488.4,324.7 L490.1,324.8 L491.7,324.8 L493.3,324.8 L495.0,324.8 L496.6,324.8 L498.2,324.8 L499.9,324.8 L501.5,324.8 L503.2,324.7 L504.8,324.8 L506.4,324.7 L508.1,324.8 L509.7,324.7 L511.3,324.7 L513.0,324.7 L514.6,324.7 L516.2,324.7 L517.9,324.8 L519.5,324.7 L521.1,324.7 L522.8,324.7 L524.4,324.7 L526.1,324.7 L527.7,324.7 L529.3,324.7 L531.0,324.7 L532.6,324.7 L534.2,324.7 L535.9,324.7 L537.5,324.7 L539.1,324.7 L540.8,324.7 L542.4,324.7 L544.1,324.7 L545.7,324.7 L547.3,324.7 L549.0,324.7 L550.6,324.7 L552.2,324.7 L553.9,324.7 L555.5,324.7 L557.1,324.7 L558.8,324.7 L560.4,324.7 L562.0,324.7 L563.7,324.7 L565.3,324.7 L567.0,324.7 L568.6,324.7 L570.2,324.7 L571.9,324.7 L573.5,324.7 L575.1,324.7 L576.8,324.7 L578.4,324.7 L580.0,324.7 L581.7,324.7 L583.3,324.7 L584.9,324.7 L586.6,324.7 L588.2,324.7 L589.9,324.7 L591.5,324.7 L593.1,324.7 L594.8,324.7 L596.4,324.7 L598.0,324.7 L599.7,324.7 L601.3,324.7 L602.9,324.7 L604.6,324.7 L606.2,324.7 L607.9,324.7 L609.5,324.7 L611.1,324.7 L612.8,324.7 L614.4,324.7 L616.0,324.7 L617.7,324.7 L619.3,324.7 L620.9,324.7 L622.6,324.7 L624.2,324.7 L625.8,324.7 L627.5,324.7 L629.1,324.7 L630.8,324.7 L632.4,324.7 L634.0,324.7 L635.7,324.7 L637.3,324.7 L638.9,324.7 L640.6,324.7 L642.2,324.7 L643.8,324.7 L645.5,324.7 L647.1,324.7 L648.7,324.7 L650.4,324.7 L652.0,324.7 L653.7,324.7 L655.3,324.7 L656.9,324.7 L658.6,324.7 L660.2,324.7 L661.8,324.7 L663.5,324.7 L665.1,324.7 L666.7,324.7 L668.4,324.7 L670.0,324.7 L671.7,324.7 L673.3,324.7 L674.9,324.7 L676.6,324.7 L678.2,324.7 L679.8,324.7 L681.5,324.7 L683.1,324.7 L684.7,324.7 L686.4,324.7 L688.0,324.7 L689.6,324.7 L691.3,324.7 L692.9,324.7 L694.6,324.7 L696.2,324.7 L697.8,324.7 L699.5,324.6 L701.1,324.7 L702.7,324.7 L704.4,324.7 L706.0,324.7 L707.6,324.7 L709.3,324.7 L710.9,324.7 L712.5,324.7 L714.2,324.7 L715.8,324.7 L717.5,324.7 L719.1,324.7 L720.7,324.7 L722.4,324.7 L724.0,324.6" class="sut"/>
<path d="M87.6,312.5 L89.3,302.0 L90.9,301.4 L92.5,299.6 L94.2,303.4 L95.8,299.3 L97.5,300.7 L99.1,285.9 L100.7,321.1 L102.4,311.6 L104.0,307.9 L105.6,310.4 L107.3,309.6 L108.9,305.5 L110.5,306.8 L112.2,308.3 L113.8,308.3 L115.4,304.5 L117.1,308.3 L118.7,308.2 L120.4,308.2 L122.0,308.2 L123.6,304.8 L125.3,307.6 L126.9,304.3 L128.5,305.9 L130.2,306.7 L131.8,302.7 L133.4,306.2 L135.1,302.0 L136.7,305.8 L138.3,304.9 L140.0,304.9 L141.6,304.7 L143.3,304.7 L144.9,304.7 L146.5,301.6 L148.2,304.6 L149.8,301.1 L151.4,302.4 L153.1,303.9 L154.7,302.3 L156.3,303.8 L158.0,303.8 L159.6,303.8 L161.3,303.7 L162.9,303.7 L164.5,301.5 L166.2,304.5 L167.8,303.8 L169.4,303.0 L171.1,304.5 L172.7,300.9 L174.3,304.5 L176.0,303.0 L177.6,306.8 L179.2,306.8 L180.9,304.0 L182.5,306.8 L184.2,304.8 L185.8,307.5 L187.4,304.6 L189.1,308.3 L190.7,304.8 L192.3,308.3 L194.0,304.6 L195.6,306.8 L197.2,308.4 L198.9,309.1 L200.5,308.3 L202.1,309.9 L203.8,308.3 L205.4,310.6 L207.1,309.0 L208.7,310.6 L210.3,307.2 L212.0,310.6 L213.6,307.0 L215.2,310.6 L216.9,306.7 L218.5,310.6 L220.1,309.9 L221.8,309.3 L223.4,312.1 L225.1,312.1 L226.7,309.3 L228.3,312.8 L230.0,310.6 L231.6,312.1 L233.2,310.6 L234.9,312.1 L236.5,308.6 L238.1,312.1 L239.8,310.0 L241.4,309.3 L243.0,312.0 L244.7,309.2 L246.3,312.0 L248.0,312.0 L249.6,308.5 L251.2,311.3 L252.9,309.8 L254.5,311.3 L256.1,309.0 L257.8,311.3 L259.4,308.5 L261.0,311.3 L262.7,311.2 L264.3,308.5 L265.9,311.2 L267.6,308.4 L269.2,311.2 L270.9,311.2 L272.5,309.7 L274.1,311.2 L275.8,309.7 L277.4,311.2 L279.0,308.4 L280.7,311.2 L282.3,308.4 L283.9,311.2 L285.6,311.1 L287.2,311.1 L288.9,311.1 L290.5,309.6 L292.1,311.1 L293.8,309.6 L295.4,311.1 L297.0,307.5 L298.7,309.5 L300.3,311.1 L301.9,311.1 L303.6,309.5 L305.2,311.1 L306.8,311.1 L308.5,309.6 L310.1,311.0 L311.8,308.1 L313.4,309.5 L315.0,311.0 L316.7,308.4 L318.3,308.9 L319.9,311.0 L321.6,311.0 L323.2,307.3 L324.8,311.0 L326.5,309.3 L328.1,310.9 L329.7,310.9 L331.4,309.4 L333.0,309.4 L334.7,310.9 L336.3,308.8 L337.9,310.3 L339.6,307.5 L341.2,310.3 L342.8,307.5 L344.5,310.3 L346.1,310.2 L347.7,310.2 L349.4,310.2 L351.0,308.8 L352.7,310.2 L354.3,308.1 L355.9,310.2 L357.6,307.4 L359.2,307.1 L360.8,310.2 L362.5,307.4 L364.1,310.1 L365.7,310.1 L367.4,310.1 L369.0,310.1 L370.6,310.1 L372.3,306.9 L373.9,308.5 L375.6,310.1 L377.2,308.5 L378.8,310.0 L380.5,306.9 L382.1,310.0 L383.7,306.1 L385.4,307.0 L387.0,310.0 L388.6,310.0 L390.3,310.0 L391.9,306.9 L393.5,309.9 L395.2,306.8 L396.8,309.9 L398.5,306.6 L400.1,306.8 L401.7,309.9 L403.4,309.9 L405.0,309.9 L406.6,309.9 L408.3,309.9 L409.9,309.9 L411.5,308.3 L413.2,309.9 L414.8,308.0 L416.5,309.8 L418.1,306.7 L419.7,309.8 L421.4,306.6 L423.0,309.8 L424.6,309.8 L426.3,309.8 L427.9,309.8 L429.5,308.3 L431.2,310.6 L432.8,307.5 L434.4,307.4 L436.1,310.5 L437.7,308.7 L439.4,310.5 L441.0,307.7 L442.6,310.5 L444.3,307.4 L445.9,310.5 L447.5,310.4 L449.2,311.6 L450.8,311.6 L452.4,310.0 L454.1,310.2 L455.7,311.6 L457.3,310.0 L459.0,312.7 L460.6,310.5 L462.3,312.0 L463.9,309.0 L465.5,311.9 L467.2,308.8 L468.8,312.0 L470.4,311.9 L472.1,310.5 L473.7,311.9 L475.3,308.8 L477.0,309.7 L478.6,311.2 L480.3,309.7 L481.9,311.2 L483.5,308.4 L485.2,311.2 L486.8,308.1 L488.4,311.2 L490.1,308.1 L491.7,310.7 L493.3,311.2 L495.0,309.6 L496.6,309.8 L498.2,311.1 L499.9,311.1 L501.5,308.0 L503.2,308.3 L504.8,311.1 L506.4,308.1 L508.1,311.0 L509.7,310.8 L511.3,311.0 L513.0,309.5 L514.6,311.0 L516.2,307.9 L517.9,311.0 L519.5,309.5 L521.1,309.0 L522.8,311.0 L524.4,309.5 L526.1,311.0 L527.7,310.9 L529.3,310.9 L531.0,307.8 L532.6,309.6 L534.2,310.9 L535.9,309.4 L537.5,310.9 L539.1,309.4 L540.8,310.9 L542.4,307.7 L544.1,308.1 L545.7,310.8 L547.3,310.8 L549.0,310.8 L550.6,311.7 L552.2,311.8 L553.9,311.7 L555.5,310.2 L557.1,311.7 L558.8,309.5 L560.4,311.0 L562.0,308.1 L563.7,311.0 L565.3,311.0 L567.0,308.0 L568.6,311.0 L570.2,307.8 L571.9,311.0 L573.5,310.9 L575.1,310.8 L576.8,310.9 L578.4,310.9 L580.0,309.4 L581.7,308.7 L583.3,310.9 L584.9,308.0 L586.6,310.9 L588.2,310.9 L589.9,310.9 L591.5,310.9 L593.1,307.7 L594.8,310.9 L596.4,310.8 L598.0,310.8 L599.7,307.7 L601.3,310.8 L602.9,310.8 L604.6,312.6 L606.2,311.9 L607.9,308.7 L609.5,311.9 L611.1,311.9 L612.8,311.9 L614.4,311.8 L616.0,308.7 L617.7,311.7 L619.3,311.7 L620.9,311.7 L622.6,311.7 L624.2,311.7 L625.8,311.8 L627.5,311.7 L629.1,311.7 L630.8,308.6 L632.4,311.7 L634.0,308.6 L635.7,311.4 L637.3,311.7 L638.9,311.7 L640.6,311.0 L642.2,308.2 L643.8,311.0 L645.5,311.0 L647.1,311.0 L648.7,307.8 L650.4,311.0 L652.0,307.9 L653.7,311.0 L655.3,307.8 L656.9,309.4 L658.6,310.9 L660.2,307.7 L661.8,310.9 L663.5,307.7 L665.1,307.5 L666.7,310.9 L668.4,307.8 L670.0,310.9 L671.7,309.1 L673.3,310.9 L674.9,307.7 L676.6,309.3 L678.2,310.8 L679.8,308.9 L681.5,310.8 L683.1,307.7 L684.7,310.8 L686.4,310.8 L688.0,310.8 L689.6,311.8 L691.3,308.7 L692.9,311.7 L694.6,308.6 L696.2,311.7 L697.8,308.5 L699.5,311.7 L701.1,308.5 L702.7,312.5 L704.4,309.6 L706.0,311.1 L707.6,311.1 L709.3,311.1 L710.9,308.3 L712.5,311.1 L714.2,308.0 L715.8,311.1 L717.5,309.5 L719.1,311.1 L720.7,307.9 L722.4,311.1 L724.0,311.0" class="db"/>
<text x="86" y="375.0" class="muted">Block read</text>
<rect x="86" y="382.0" width="49.1" height="40" class="warm"/>
<line x1="86" y1="422.0" x2="724" y2="422.0" class="grid"/><text x="78.0" y="426.0" class="muted" text-anchor="end">0 B/s</text>
<line x1="86" y1="402.0" x2="724" y2="402.0" class="grid"/><text x="78.0" y="406.0" class="muted" text-anchor="end">250 MB/s</text>
<line x1="86" y1="382.0" x2="724" y2="382.0" class="grid"/><text x="78.0" y="386.0" class="muted" text-anchor="end">500 MB/s</text>
<path d="M89.3,422.0 L90.9,422.0 L92.5,422.0 L94.2,422.0 L95.8,422.0 L97.5,422.0 L99.1,422.0 L100.7,422.0 L102.4,422.0 L104.0,422.0 L105.6,422.0 L107.3,422.0 L108.9,422.0 L110.5,422.0 L112.2,422.0 L113.8,422.0 L115.4,422.0 L117.1,422.0 L118.7,422.0 L120.4,422.0 L122.0,422.0 L123.6,422.0 L125.3,422.0 L126.9,422.0 L128.5,422.0 L130.2,422.0 L131.8,422.0 L133.4,422.0 L135.1,422.0 L136.7,422.0 L138.3,422.0 L140.0,422.0 L141.6,422.0 L143.3,422.0 L144.9,422.0 L146.5,422.0 L148.2,422.0 L149.8,422.0 L151.4,422.0 L153.1,422.0 L154.7,422.0 L156.3,422.0 L158.0,422.0 L159.6,422.0 L161.3,422.0 L162.9,422.0 L164.5,422.0 L166.2,422.0 L167.8,422.0 L169.4,422.0 L171.1,422.0 L172.7,422.0 L174.3,422.0 L176.0,422.0 L177.6,422.0 L179.2,422.0 L180.9,422.0 L182.5,422.0 L184.2,422.0 L185.8,422.0 L187.4,422.0 L189.1,422.0 L190.7,422.0 L192.3,422.0 L194.0,422.0 L195.6,422.0 L197.2,422.0 L198.9,422.0 L200.5,422.0 L202.1,422.0 L203.8,422.0 L205.4,422.0 L207.1,422.0 L208.7,422.0 L210.3,422.0 L212.0,422.0 L213.6,422.0 L215.2,422.0 L216.9,422.0 L218.5,422.0 L220.1,422.0 L221.8,422.0 L223.4,422.0 L225.1,422.0 L226.7,422.0 L228.3,422.0 L230.0,422.0 L231.6,422.0 L233.2,422.0 L234.9,422.0 L236.5,422.0 L238.1,422.0 L239.8,422.0 L241.4,422.0 L243.0,422.0 L244.7,422.0 L246.3,422.0 L248.0,422.0 L249.6,422.0 L251.2,422.0 L252.9,422.0 L254.5,422.0 L256.1,422.0 L257.8,422.0 L259.4,422.0 L261.0,422.0 L262.7,422.0 L264.3,422.0 L265.9,422.0 L267.6,422.0 L269.2,422.0 L270.9,422.0 L272.5,422.0 L274.1,422.0 L275.8,422.0 L277.4,422.0 L279.0,422.0 L280.7,422.0 L282.3,422.0 L283.9,422.0 L285.6,422.0 L287.2,422.0 L288.9,422.0 L290.5,422.0 L292.1,422.0 L293.8,422.0 L295.4,422.0 L297.0,422.0 L298.7,422.0 L300.3,422.0 L301.9,422.0 L303.6,422.0 L305.2,422.0 L306.8,422.0 L308.5,422.0 L310.1,422.0 L311.8,422.0 L313.4,422.0 L315.0,422.0 L316.7,422.0 L318.3,422.0 L319.9,422.0 L321.6,422.0 L323.2,422.0 L324.8,422.0 L326.5,422.0 L328.1,422.0 L329.7,422.0 L331.4,422.0 L333.0,422.0 L334.7,422.0 L336.3,422.0 L337.9,422.0 L339.6,422.0 L341.2,422.0 L342.8,422.0 L344.5,422.0 L346.1,422.0 L347.7,422.0 L349.4,422.0 L351.0,422.0 L352.7,422.0 L354.3,422.0 L355.9,422.0 L357.6,422.0 L359.2,422.0 L360.8,422.0 L362.5,422.0 L364.1,422.0 L365.7,422.0 L367.4,422.0 L369.0,422.0 L370.6,422.0 L372.3,422.0 L373.9,422.0 L375.6,422.0 L377.2,422.0 L378.8,422.0 L380.5,422.0 L382.1,422.0 L383.7,422.0 L385.4,422.0 L387.0,422.0 L388.6,422.0 L390.3,422.0 L391.9,422.0 L393.5,422.0 L395.2,422.0 L396.8,422.0 L398.5,422.0 L400.1,422.0 L401.7,422.0 L403.4,422.0 L405.0,422.0 L406.6,422.0 L408.3,422.0 L409.9,422.0 L411.5,422.0 L413.2,422.0 L414.8,422.0 L416.5,422.0 L418.1,422.0 L419.7,422.0 L421.4,422.0 L423.0,422.0 L424.6,422.0 L426.3,422.0 L427.9,422.0 L429.5,422.0 L431.2,422.0 L432.8,422.0 L434.4,422.0 L436.1,422.0 L437.7,422.0 L439.4,422.0 L441.0,422.0 L442.6,422.0 L444.3,422.0 L445.9,422.0 L447.5,422.0 L449.2,422.0 L450.8,422.0 L452.4,422.0 L454.1,422.0 L455.7,422.0 L457.3,422.0 L459.0,422.0 L460.6,422.0 L462.3,422.0 L463.9,422.0 L465.5,422.0 L467.2,422.0 L468.8,422.0 L470.4,422.0 L472.1,422.0 L473.7,422.0 L475.3,422.0 L477.0,422.0 L478.6,422.0 L480.3,422.0 L481.9,422.0 L483.5,422.0 L485.2,422.0 L486.8,422.0 L488.4,422.0 L490.1,422.0 L491.7,422.0 L493.3,422.0 L495.0,422.0 L496.6,422.0 L498.2,422.0 L499.9,422.0 L501.5,422.0 L503.2,422.0 L504.8,422.0 L506.4,422.0 L508.1,422.0 L509.7,422.0 L511.3,422.0 L513.0,422.0 L514.6,422.0 L516.2,422.0 L517.9,422.0 L519.5,422.0 L521.1,422.0 L522.8,422.0 L524.4,422.0 L526.1,422.0 L527.7,422.0 L529.3,422.0 L531.0,422.0 L532.6,422.0 L534.2,422.0 L535.9,422.0 L537.5,422.0 L539.1,422.0 L540.8,422.0 L542.4,422.0 L544.1,422.0 L545.7,422.0 L547.3,422.0 L549.0,422.0 L550.6,422.0 L552.2,422.0 L553.9,422.0 L555.5,422.0 L557.1,422.0 L558.8,422.0 L560.4,422.0 L562.0,422.0 L563.7,422.0 L565.3,422.0 L567.0,422.0 L568.6,422.0 L570.2,422.0 L571.9,422.0 L573.5,422.0 L575.1,422.0 L576.8,422.0 L578.4,422.0 L580.0,422.0 L581.7,422.0 L583.3,422.0 L584.9,422.0 L586.6,422.0 L588.2,422.0 L589.9,422.0 L591.5,422.0 L593.1,422.0 L594.8,422.0 L596.4,422.0 L598.0,422.0 L599.7,422.0 L601.3,422.0 L602.9,422.0 L604.6,422.0 L606.2,422.0 L607.9,422.0 L609.5,422.0 L611.1,422.0 L612.8,422.0 L614.4,422.0 L616.0,422.0 L617.7,422.0 L619.3,422.0 L620.9,422.0 L622.6,422.0 L624.2,422.0 L625.8,422.0 L627.5,422.0 L629.1,422.0 L630.8,422.0 L632.4,422.0 L634.0,422.0 L635.7,422.0 L637.3,422.0 L638.9,422.0 L640.6,422.0 L642.2,422.0 L643.8,422.0 L645.5,422.0 L647.1,422.0 L648.7,422.0 L650.4,422.0 L652.0,422.0 L653.7,422.0 L655.3,422.0 L656.9,422.0 L658.6,422.0 L660.2,422.0 L661.8,422.0 L663.5,422.0 L665.1,422.0 L666.7,422.0 L668.4,422.0 L670.0,422.0 L671.7,422.0 L673.3,422.0 L674.9,422.0 L676.6,422.0 L678.2,422.0 L679.8,422.0 L681.5,422.0 L683.1,422.0 L684.7,422.0 L686.4,422.0 L688.0,422.0 L689.6,422.0 L691.3,422.0 L692.9,422.0 L694.6,422.0 L696.2,422.0 L697.8,422.0 L699.5,422.0 L701.1,422.0 L702.7,422.0 L704.4,422.0 L706.0,422.0 L707.6,422.0 L709.3,422.0 L710.9,422.0 L712.5,422.0 L714.2,422.0 L715.8,422.0 L717.5,422.0 L719.1,422.0 L720.7,422.0 L722.4,422.0 L724.0,422.0" class="sut"/>
<path d="M89.3,410.3 L90.9,394.5 L92.5,393.0 L94.2,412.6 L95.8,402.7 L97.5,402.2 L99.1,396.2 L100.7,400.5 L102.4,406.4 L104.0,415.4 L105.6,409.2 L107.3,402.7 L108.9,412.9 L110.5,411.6 L112.2,402.5 L113.8,422.0 L115.4,405.7 L117.1,418.8 L118.7,402.5 L120.4,422.0 L122.0,402.5 L123.6,417.1 L125.3,407.3 L126.9,414.6 L128.5,409.6 L130.2,403.4 L131.8,410.9 L133.4,414.8 L135.1,407.2 L136.7,419.0 L138.3,404.5 L140.0,422.0 L141.6,404.8 L143.3,422.0 L144.9,405.0 L146.5,416.4 L148.2,410.7 L149.8,418.0 L151.4,404.9 L153.1,409.8 L154.7,420.3 L156.3,407.1 L158.0,405.5 L159.6,422.0 L161.3,405.6 L162.9,422.0 L164.5,417.1 L166.2,410.5 L167.8,405.6 L169.4,421.4 L171.1,406.3 L172.7,412.7 L174.3,415.0 L176.0,408.8 L177.6,418.9 L179.2,405.8 L180.9,418.4 L182.5,409.3 L184.2,418.3 L185.8,409.5 L187.4,416.2 L189.1,411.6 L190.7,413.2 L192.3,414.6 L194.0,407.9 L195.6,417.8 L197.2,408.0 L198.9,405.8 L200.5,419.0 L202.1,408.9 L203.8,418.3 L205.4,409.6 L207.1,417.8 L208.7,410.1 L210.3,413.5 L212.0,414.4 L213.6,411.4 L215.2,416.5 L216.9,406.1 L218.5,421.8 L220.1,418.2 L221.8,405.9 L223.4,413.4 L225.1,405.9 L226.7,414.8 L228.3,413.1 L230.0,414.6 L231.6,413.3 L233.2,417.7 L234.9,410.2 L236.5,409.8 L238.1,418.1 L239.8,408.2 L241.4,413.2 L243.0,412.5 L244.7,414.9 L246.3,413.0 L248.0,406.0 L249.6,414.8 L251.2,413.1 L252.9,420.6 L254.5,407.3 L256.1,416.9 L257.8,411.1 L259.4,416.4 L261.0,411.5 L262.7,405.9 L264.3,416.1 L265.9,411.8 L267.6,414.7 L269.2,413.3 L270.9,405.9 L272.5,421.5 L274.1,406.4 L275.8,418.6 L277.4,409.4 L279.0,416.8 L280.7,411.2 L282.3,414.9 L283.9,413.0 L285.6,405.9 L287.2,422.0 L288.9,405.9 L290.5,414.6 L292.1,413.3 L293.8,419.7 L295.4,408.2 L297.0,408.8 L298.7,414.5 L300.3,410.5 L301.9,422.0 L303.6,407.1 L305.2,420.8 L306.8,406.0 L308.5,421.6 L310.1,406.4 L311.8,413.1 L313.4,412.9 L315.0,407.9 L316.7,417.0 L318.3,406.9 L319.9,410.0 L321.6,422.0 L323.2,407.3 L324.8,420.6 L326.5,406.7 L328.1,421.2 L329.7,406.0 L331.4,413.0 L333.0,414.2 L334.7,406.6 L336.3,418.8 L337.9,409.1 L339.6,416.8 L341.2,411.1 L342.8,415.2 L344.5,412.7 L346.1,405.9 L347.7,422.0 L349.4,405.9 L351.0,421.8 L352.7,406.1 L354.3,418.3 L355.9,409.7 L357.6,416.8 L359.2,403.9 L360.8,418.2 L362.5,415.9 L364.1,412.1 L365.7,405.9 L367.4,422.0 L369.0,405.9 L370.6,422.0 L372.3,409.6 L373.9,417.2 L375.6,407.0 L377.2,419.4 L378.8,408.6 L380.5,409.6 L382.1,418.4 L383.7,405.9 L385.4,412.0 L387.0,415.9 L388.6,405.9 L390.3,422.0 L391.9,409.7 L393.5,418.2 L395.2,408.4 L396.8,419.5 L398.5,407.0 L400.1,408.3 L401.7,418.5 L403.4,405.9 L405.0,422.0 L406.6,405.9 L408.3,422.0 L409.9,405.9 L411.5,421.4 L413.2,406.5 L414.8,409.5 L416.5,418.4 L418.1,409.6 L419.7,418.3 L421.4,408.1 L423.0,419.8 L424.6,405.9 L426.3,422.0 L427.9,405.9 L429.5,409.7 L431.2,418.2 L432.8,409.7 L434.4,406.0 L436.1,418.2 L437.7,409.6 L439.4,418.3 L441.0,415.8 L442.6,412.1 L444.3,411.5 L445.9,416.4 L447.5,405.9 L449.2,422.0 L450.8,406.0 L452.4,410.0 L454.1,417.8 L455.7,406.0 L457.3,409.6 L459.0,418.3 L460.6,417.8 L462.3,410.2 L463.9,412.6 L465.5,415.4 L467.2,410.8 L468.8,417.1 L470.4,406.0 L472.1,422.0 L473.7,406.0 L475.3,409.6 L477.0,417.6 L478.6,406.8 L480.3,419.5 L481.9,408.5 L483.5,415.8 L485.2,412.2 L486.8,411.6 L488.4,416.3 L490.1,410.3 L491.7,417.7 L493.3,406.0 L495.0,421.2 L496.6,406.7 L498.2,406.0 L499.9,422.0 L501.5,408.1 L503.2,414.3 L504.8,411.5 L506.4,412.6 L508.1,415.3 L509.7,422.0 L511.3,406.0 L513.0,420.8 L514.6,407.1 L516.2,409.8 L517.9,418.2 L519.5,408.6 L521.1,415.0 L522.8,410.3 L524.4,412.2 L526.1,415.7 L527.7,406.0 L529.3,422.0 L531.0,408.4 L532.6,419.5 L534.2,406.0 L535.9,420.1 L537.5,407.8 L539.1,417.6 L540.8,410.3 L542.4,408.5 L544.1,413.7 L545.7,411.7 L547.3,406.0 L549.0,422.0 L550.6,406.0 L552.2,422.0 L553.9,406.0 L555.5,421.2 L557.1,406.8 L558.8,418.6 L560.4,409.3 L562.0,415.2 L563.7,412.7 L565.3,422.0 L567.0,397.6 L568.6,414.6 L570.2,410.9 L571.9,417.0 L573.5,406.0 L575.1,422.0 L576.8,406.0 L578.4,422.0 L580.0,408.7 L581.7,414.5 L583.3,410.7 L584.9,414.8 L586.6,413.1 L588.2,406.0 L589.9,422.0 L591.5,405.9 L593.1,409.5 L594.8,418.5 L596.4,405.9 L598.0,422.0 L599.7,409.2 L601.3,418.8 L602.9,405.9 L604.6,422.0 L606.2,405.9 L607.9,409.5 L609.5,418.5 L611.1,405.9 L612.8,422.0 L614.4,406.0 L616.0,409.2 L617.7,418.8 L619.3,406.0 L620.9,422.0 L622.6,406.0 L624.2,422.0 L625.8,406.0 L627.5,422.0 L629.1,406.0 L630.8,409.3 L632.4,418.7 L634.0,409.1 L635.7,418.9 L637.3,406.0 L638.9,422.0 L640.6,405.9 L642.2,414.6 L643.8,413.3 L645.5,405.9 L647.1,422.0 L648.7,409.8 L650.4,418.1 L652.0,409.2 L653.7,418.7 L655.3,408.3 L656.9,417.1 L658.6,408.5 L660.2,408.2 L661.8,419.8 L663.5,408.0 L665.1,404.2 L666.7,421.7 L668.4,411.3 L670.0,416.7 L671.7,411.1 L673.3,416.8 L674.9,409.2 L676.6,417.8 L678.2,406.9 L679.8,409.2 L681.5,418.7 L683.1,411.3 L684.7,416.7 L686.4,405.9 L688.0,422.0 L689.6,405.9 L691.3,411.4 L692.9,416.5 L694.6,410.4 L696.2,417.5 L697.8,409.2 L699.5,418.8 L701.1,409.1 L702.7,418.9 L704.4,403.6 L706.0,408.3 L707.6,422.0 L709.3,406.0 L710.9,414.9 L712.5,413.0 L714.2,411.4 L715.8,416.6 L717.5,420.8 L719.1,407.1 L720.7,409.5 L722.4,418.4 L724.0,405.9" class="db"/>
<text x="86" y="437.0" class="muted">Block write</text>
<rect x="86" y="444.0" width="49.1" height="40" class="warm"/>
<line x1="86" y1="484.0" x2="724" y2="484.0" class="grid"/><text x="78.0" y="488.0" class="muted" text-anchor="end">0 B/s</text>
<line x1="86" y1="464.0" x2="724" y2="464.0" class="grid"/><text x="78.0" y="468.0" class="muted" text-anchor="end">25 MB/s</text>
<line x1="86" y1="444.0" x2="724" y2="444.0" class="grid"/><text x="78.0" y="448.0" class="muted" text-anchor="end">50 MB/s</text>
<path d="M89.3,484.0 L90.9,484.0 L92.5,484.0 L94.2,484.0 L95.8,484.0 L97.5,484.0 L99.1,484.0 L100.7,484.0 L102.4,484.0 L104.0,484.0 L105.6,484.0 L107.3,484.0 L108.9,484.0 L110.5,484.0 L112.2,484.0 L113.8,484.0 L115.4,484.0 L117.1,484.0 L118.7,484.0 L120.4,484.0 L122.0,484.0 L123.6,484.0 L125.3,484.0 L126.9,484.0 L128.5,484.0 L130.2,484.0 L131.8,484.0 L133.4,484.0 L135.1,484.0 L136.7,484.0 L138.3,484.0 L140.0,484.0 L141.6,484.0 L143.3,484.0 L144.9,484.0 L146.5,484.0 L148.2,484.0 L149.8,484.0 L151.4,484.0 L153.1,484.0 L154.7,484.0 L156.3,484.0 L158.0,484.0 L159.6,484.0 L161.3,484.0 L162.9,484.0 L164.5,484.0 L166.2,484.0 L167.8,484.0 L169.4,484.0 L171.1,484.0 L172.7,484.0 L174.3,484.0 L176.0,484.0 L177.6,484.0 L179.2,484.0 L180.9,484.0 L182.5,484.0 L184.2,484.0 L185.8,484.0 L187.4,484.0 L189.1,484.0 L190.7,484.0 L192.3,484.0 L194.0,484.0 L195.6,484.0 L197.2,484.0 L198.9,484.0 L200.5,484.0 L202.1,484.0 L203.8,484.0 L205.4,484.0 L207.1,484.0 L208.7,484.0 L210.3,484.0 L212.0,484.0 L213.6,484.0 L215.2,484.0 L216.9,484.0 L218.5,484.0 L220.1,484.0 L221.8,484.0 L223.4,484.0 L225.1,484.0 L226.7,484.0 L228.3,484.0 L230.0,484.0 L231.6,484.0 L233.2,484.0 L234.9,484.0 L236.5,484.0 L238.1,484.0 L239.8,484.0 L241.4,484.0 L243.0,484.0 L244.7,484.0 L246.3,484.0 L248.0,484.0 L249.6,484.0 L251.2,484.0 L252.9,484.0 L254.5,484.0 L256.1,484.0 L257.8,484.0 L259.4,484.0 L261.0,484.0 L262.7,484.0 L264.3,484.0 L265.9,484.0 L267.6,484.0 L269.2,484.0 L270.9,484.0 L272.5,484.0 L274.1,484.0 L275.8,484.0 L277.4,484.0 L279.0,484.0 L280.7,484.0 L282.3,484.0 L283.9,484.0 L285.6,484.0 L287.2,484.0 L288.9,484.0 L290.5,484.0 L292.1,484.0 L293.8,484.0 L295.4,484.0 L297.0,484.0 L298.7,484.0 L300.3,484.0 L301.9,484.0 L303.6,484.0 L305.2,484.0 L306.8,484.0 L308.5,484.0 L310.1,484.0 L311.8,484.0 L313.4,484.0 L315.0,484.0 L316.7,484.0 L318.3,484.0 L319.9,484.0 L321.6,484.0 L323.2,484.0 L324.8,484.0 L326.5,484.0 L328.1,484.0 L329.7,484.0 L331.4,484.0 L333.0,484.0 L334.7,484.0 L336.3,484.0 L337.9,484.0 L339.6,484.0 L341.2,484.0 L342.8,484.0 L344.5,484.0 L346.1,484.0 L347.7,484.0 L349.4,484.0 L351.0,484.0 L352.7,484.0 L354.3,484.0 L355.9,484.0 L357.6,484.0 L359.2,484.0 L360.8,484.0 L362.5,484.0 L364.1,484.0 L365.7,484.0 L367.4,484.0 L369.0,484.0 L370.6,484.0 L372.3,484.0 L373.9,484.0 L375.6,484.0 L377.2,484.0 L378.8,484.0 L380.5,484.0 L382.1,484.0 L383.7,484.0 L385.4,484.0 L387.0,484.0 L388.6,484.0 L390.3,484.0 L391.9,484.0 L393.5,484.0 L395.2,484.0 L396.8,484.0 L398.5,484.0 L400.1,484.0 L401.7,484.0 L403.4,484.0 L405.0,484.0 L406.6,484.0 L408.3,484.0 L409.9,484.0 L411.5,484.0 L413.2,484.0 L414.8,484.0 L416.5,484.0 L418.1,484.0 L419.7,484.0 L421.4,484.0 L423.0,484.0 L424.6,484.0 L426.3,484.0 L427.9,484.0 L429.5,484.0 L431.2,484.0 L432.8,484.0 L434.4,484.0 L436.1,484.0 L437.7,484.0 L439.4,484.0 L441.0,484.0 L442.6,484.0 L444.3,484.0 L445.9,484.0 L447.5,484.0 L449.2,484.0 L450.8,484.0 L452.4,484.0 L454.1,484.0 L455.7,484.0 L457.3,484.0 L459.0,484.0 L460.6,484.0 L462.3,484.0 L463.9,484.0 L465.5,484.0 L467.2,484.0 L468.8,484.0 L470.4,484.0 L472.1,484.0 L473.7,484.0 L475.3,484.0 L477.0,484.0 L478.6,484.0 L480.3,484.0 L481.9,484.0 L483.5,484.0 L485.2,484.0 L486.8,484.0 L488.4,484.0 L490.1,484.0 L491.7,484.0 L493.3,484.0 L495.0,484.0 L496.6,484.0 L498.2,484.0 L499.9,484.0 L501.5,484.0 L503.2,484.0 L504.8,484.0 L506.4,484.0 L508.1,484.0 L509.7,484.0 L511.3,484.0 L513.0,484.0 L514.6,484.0 L516.2,484.0 L517.9,484.0 L519.5,484.0 L521.1,484.0 L522.8,484.0 L524.4,484.0 L526.1,484.0 L527.7,484.0 L529.3,484.0 L531.0,484.0 L532.6,484.0 L534.2,484.0 L535.9,484.0 L537.5,484.0 L539.1,484.0 L540.8,484.0 L542.4,484.0 L544.1,484.0 L545.7,484.0 L547.3,484.0 L549.0,484.0 L550.6,484.0 L552.2,484.0 L553.9,484.0 L555.5,484.0 L557.1,484.0 L558.8,484.0 L560.4,484.0 L562.0,484.0 L563.7,484.0 L565.3,484.0 L567.0,484.0 L568.6,484.0 L570.2,484.0 L571.9,484.0 L573.5,484.0 L575.1,484.0 L576.8,484.0 L578.4,484.0 L580.0,484.0 L581.7,484.0 L583.3,484.0 L584.9,484.0 L586.6,484.0 L588.2,484.0 L589.9,484.0 L591.5,484.0 L593.1,484.0 L594.8,484.0 L596.4,484.0 L598.0,484.0 L599.7,484.0 L601.3,484.0 L602.9,484.0 L604.6,484.0 L606.2,484.0 L607.9,484.0 L609.5,484.0 L611.1,484.0 L612.8,484.0 L614.4,484.0 L616.0,484.0 L617.7,484.0 L619.3,484.0 L620.9,484.0 L622.6,484.0 L624.2,484.0 L625.8,484.0 L627.5,484.0 L629.1,484.0 L630.8,484.0 L632.4,484.0 L634.0,484.0 L635.7,484.0 L637.3,484.0 L638.9,484.0 L640.6,484.0 L642.2,484.0 L643.8,484.0 L645.5,484.0 L647.1,484.0 L648.7,484.0 L650.4,484.0 L652.0,484.0 L653.7,484.0 L655.3,484.0 L656.9,484.0 L658.6,484.0 L660.2,484.0 L661.8,484.0 L663.5,484.0 L665.1,484.0 L666.7,484.0 L668.4,484.0 L670.0,484.0 L671.7,484.0 L673.3,484.0 L674.9,484.0 L676.6,484.0 L678.2,484.0 L679.8,484.0 L681.5,484.0 L683.1,484.0 L684.7,484.0 L686.4,484.0 L688.0,484.0 L689.6,484.0 L691.3,484.0 L692.9,484.0 L694.6,484.0 L696.2,484.0 L697.8,484.0 L699.5,484.0 L701.1,484.0 L702.7,484.0 L704.4,484.0 L706.0,484.0 L707.6,484.0 L709.3,484.0 L710.9,484.0 L712.5,484.0 L714.2,484.0 L715.8,484.0 L717.5,484.0 L719.1,484.0 L720.7,484.0 L722.4,484.0 L724.0,484.0" class="sut"/>
<path d="M89.3,472.1 L90.9,483.9 L92.5,482.0 L94.2,483.6 L95.8,483.9 L97.5,454.6 L99.1,484.0 L100.7,484.0 L102.4,484.0 L104.0,483.9 L105.6,476.4 L107.3,484.0 L108.9,484.0 L110.5,475.5 L112.2,484.0 L113.8,483.9 L115.4,483.9 L117.1,483.9 L118.7,483.9 L120.4,483.9 L122.0,484.0 L123.6,483.9 L125.3,484.0 L126.9,484.0 L128.5,483.9 L130.2,483.9 L131.8,483.9 L133.4,483.9 L135.1,483.9 L136.7,483.8 L138.3,483.9 L140.0,483.9 L141.6,479.5 L143.3,484.0 L144.9,484.0 L146.5,484.0 L148.2,484.0 L149.8,484.0 L151.4,477.2 L153.1,484.0 L154.7,484.0 L156.3,484.0 L158.0,483.9 L159.6,483.9 L161.3,484.0 L162.9,484.0 L164.5,483.9 L166.2,484.0 L167.8,483.8 L169.4,484.0 L171.1,477.2 L172.7,484.0 L174.3,483.9 L176.0,483.9 L177.6,483.9 L179.2,484.0 L180.9,483.9 L182.5,484.0 L184.2,484.0 L185.8,483.9 L187.4,483.9 L189.1,484.0 L190.7,484.0 L192.3,475.5 L194.0,484.0 L195.6,484.0 L197.2,477.6 L198.9,484.0 L200.5,484.0 L202.1,476.6 L203.8,484.0 L205.4,484.0 L207.1,484.0 L208.7,484.0 L210.3,483.9 L212.0,483.9 L213.6,484.0 L215.2,483.9 L216.9,483.8 L218.5,484.0 L220.1,483.9 L221.8,484.0 L223.4,476.8 L225.1,484.0 L226.7,484.0 L228.3,483.9 L230.0,479.2 L231.6,484.0 L233.2,484.0 L234.9,483.9 L236.5,484.0 L238.1,483.9 L239.8,477.1 L241.4,482.4 L243.0,484.0 L244.7,484.0 L246.3,477.6 L248.0,484.0 L249.6,484.0 L251.2,477.0 L252.9,483.9 L254.5,483.9 L256.1,483.9 L257.8,483.8 L259.4,484.0 L261.0,476.4 L262.7,484.0 L264.3,484.0 L265.9,476.1 L267.6,484.0 L269.2,484.0 L270.9,477.6 L272.5,484.0 L274.1,484.0 L275.8,483.9 L277.4,483.9 L279.0,483.9 L280.7,483.9 L282.3,484.0 L283.9,475.6 L285.6,484.0 L287.2,484.0 L288.9,483.9 L290.5,477.9 L292.1,484.0 L293.8,484.0 L295.4,484.0 L297.0,484.0 L298.7,483.9 L300.3,484.0 L301.9,483.9 L303.6,476.5 L305.2,484.0 L306.8,484.0 L308.5,484.0 L310.1,483.9 L311.8,483.9 L313.4,479.5 L315.0,484.0 L316.7,484.0 L318.3,484.0 L319.9,479.2 L321.6,484.0 L323.2,484.0 L324.8,483.9 L326.5,476.6 L328.1,484.0 L329.7,484.0 L331.4,478.1 L333.0,484.0 L334.7,484.0 L336.3,483.5 L337.9,484.0 L339.6,484.0 L341.2,483.9 L342.8,484.0 L344.5,483.9 L346.1,484.0 L347.7,483.8 L349.4,483.9 L351.0,484.0 L352.7,483.9 L354.3,483.9 L355.9,483.9 L357.6,484.0 L359.2,476.9 L360.8,484.0 L362.5,484.0 L364.1,484.0 L365.7,475.6 L367.4,484.0 L369.0,484.0 L370.6,483.9 L372.3,484.0 L373.9,483.9 L375.6,484.0 L377.2,483.9 L378.8,483.9 L380.5,484.0 L382.1,483.9 L383.7,484.0 L385.4,484.0 L387.0,484.0 L388.6,484.0 L390.3,483.9 L391.9,483.9 L393.5,483.9 L395.2,484.0 L396.8,483.9 L398.5,484.0 L400.1,484.0 L401.7,483.9 L403.4,484.0 L405.0,483.9 L406.6,475.6 L408.3,484.0 L409.9,484.0 L411.5,484.0 L413.2,483.9 L414.8,479.6 L416.5,484.0 L418.1,484.0 L419.7,483.9 L421.4,484.0 L423.0,483.9 L424.6,475.9 L426.3,483.9 L427.9,483.9 L429.5,477.5 L431.2,484.0 L432.8,484.0 L434.4,484.0 L436.1,484.0 L437.7,479.3 L439.4,484.0 L441.0,484.0 L442.6,483.9 L444.3,484.0 L445.9,476.7 L447.5,484.0 L449.2,484.0 L450.8,484.0 L452.4,478.7 L454.1,484.0 L455.7,484.0 L457.3,477.9 L459.0,484.0 L460.6,484.0 L462.3,483.9 L463.9,484.0 L465.5,483.9 L467.2,484.0 L468.8,475.4 L470.4,484.0 L472.1,484.0 L473.7,477.9 L475.3,483.9 L477.0,483.8 L478.6,484.0 L480.3,479.4 L481.9,484.0 L483.5,484.0 L485.2,483.9 L486.8,484.0 L488.4,483.9 L490.1,484.0 L491.7,484.0 L493.3,484.0 L495.0,484.0 L496.6,483.9 L498.2,484.0 L499.9,484.0 L501.5,484.0 L503.2,475.3 L504.8,484.0 L506.4,484.0 L508.1,477.3 L509.7,483.9 L511.3,483.9 L513.0,484.0 L514.6,483.8 L516.2,484.0 L517.9,484.0 L519.5,476.4 L521.1,484.0 L522.8,484.0 L524.4,478.4 L526.1,484.0 L527.7,484.0 L529.3,484.0 L531.0,483.9 L532.6,483.9 L534.2,483.9 L535.9,484.0 L537.5,475.5 L539.1,484.0 L540.8,484.0 L542.4,484.0 L544.1,484.0 L545.7,477.2 L547.3,484.0 L549.0,484.0 L550.6,484.0 L552.2,483.9 L553.9,484.0 L555.5,483.9 L557.1,484.0 L558.8,483.9 L560.4,483.9 L562.0,483.9 L563.7,483.9 L565.3,484.0 L567.0,484.0 L568.6,477.5 L570.2,484.0 L571.9,484.0 L573.5,484.0 L575.1,483.9 L576.8,484.0 L578.4,483.9 L580.0,475.8 L581.7,484.0 L583.3,483.9 L584.9,484.0 L586.6,484.0 L588.2,483.9 L589.9,484.0 L591.5,479.6 L593.1,484.0 L594.8,484.0 L596.4,479.1 L598.0,483.9 L599.7,483.9 L601.3,483.9 L602.9,484.0 L604.6,484.0 L606.2,478.2 L607.9,484.0 L609.5,484.0 L611.1,477.5 L612.8,484.0 L614.4,484.0 L616.0,484.0 L617.7,484.0 L619.3,484.0 L620.9,483.9 L622.6,484.0 L624.2,483.9 L625.8,483.9 L627.5,484.0 L629.1,484.0 L630.8,483.9 L632.4,483.9 L634.0,484.0 L635.7,484.0 L637.3,484.0 L638.9,483.9 L640.6,476.9 L642.2,484.0 L643.8,484.0 L645.5,476.1 L647.1,484.0 L648.7,484.0 L650.4,483.9 L652.0,484.0 L653.7,483.9 L655.3,484.0 L656.9,483.9 L658.6,483.9 L660.2,484.0 L661.8,484.0 L663.5,484.0 L665.1,475.6 L666.7,484.0 L668.4,483.9 L670.0,484.0 L671.7,479.5 L673.3,483.9 L674.9,484.0 L676.6,484.0 L678.2,484.0 L679.8,479.5 L681.5,484.0 L683.1,484.0 L684.7,483.9 L686.4,484.0 L688.0,483.9 L689.6,476.8 L691.3,484.0 L692.9,484.0 L694.6,483.9 L696.2,484.0 L697.8,483.9 L699.5,483.9 L701.1,484.0 L702.7,483.9 L704.4,484.0 L706.0,475.7 L707.6,484.0 L709.3,484.0 L710.9,483.9 L712.5,484.0 L714.2,483.9 L715.8,484.0 L717.5,483.9 L719.1,476.5 L720.7,483.9 L722.4,483.9 L724.0,477.8" class="db"/>
<text x="86" y="499.0" class="muted">Network receive</text>
<rect x="86" y="506.0" width="49.1" height="40" class="warm"/>
<line x1="86" y1="546.0" x2="724" y2="546.0" class="grid"/><text x="78.0" y="550.0" class="muted" text-anchor="end">0 B/s</text>
<line x1="86" y1="526.0" x2="724" y2="526.0" class="grid"/><text x="78.0" y="530.0" class="muted" text-anchor="end">25 KB/s</text>
<line x1="86" y1="506.0" x2="724" y2="506.0" class="grid"/><text x="78.0" y="510.0" class="muted" text-anchor="end">50 KB/s</text>
<path d="M89.3,539.2 L90.9,536.3 L92.5,523.5 L94.2,535.8 L95.8,538.2 L97.5,532.6 L99.1,540.0 L100.7,541.1 L102.4,535.8 L104.0,537.5 L105.6,539.7 L107.3,538.8 L108.9,538.8 L110.5,539.7 L112.2,541.1 L113.8,525.9 L115.4,540.5 L117.1,533.8 L118.7,533.9 L120.4,538.8 L122.0,540.6 L123.6,536.6 L125.3,540.4 L126.9,540.2 L128.5,522.5 L130.2,533.1 L131.8,533.5 L133.4,540.4 L135.1,539.9 L136.7,534.4 L138.3,538.1 L140.0,532.1 L141.6,539.9 L143.3,540.7 L144.9,540.3 L146.5,539.5 L148.2,541.0 L149.8,539.4 L151.4,535.2 L153.1,538.5 L154.7,539.8 L156.3,532.9 L158.0,537.7 L159.6,537.2 L161.3,540.8 L162.9,536.9 L164.5,531.8 L166.2,539.1 L167.8,537.9 L169.4,540.5 L171.1,539.4 L172.7,537.8 L174.3,526.1 L176.0,531.3 L177.6,539.4 L179.2,539.5 L180.9,540.6 L182.5,540.2 L184.2,537.3 L185.8,536.6 L187.4,535.0 L189.1,532.1 L190.7,541.4 L192.3,539.0 L194.0,540.7 L195.6,537.9 L197.2,538.5 L198.9,539.0 L200.5,537.6 L202.1,538.8 L203.8,541.4 L205.4,539.1 L207.1,535.8 L208.7,539.3 L210.3,537.7 L212.0,531.6 L213.6,539.8 L215.2,531.0 L216.9,531.7 L218.5,540.1 L220.1,540.0 L221.8,536.3 L223.4,540.1 L225.1,531.4 L226.7,540.6 L228.3,537.3 L230.0,537.3 L231.6,536.7 L233.2,540.1 L234.9,532.0 L236.5,538.6 L238.1,538.6 L239.8,532.5 L241.4,539.1 L243.0,540.5 L244.7,537.9 L246.3,540.4 L248.0,538.8 L249.6,539.1 L251.2,541.3 L252.9,526.3 L254.5,537.0 L256.1,538.7 L257.8,532.4 L259.4,541.3 L261.0,539.6 L262.7,533.0 L264.3,538.1 L265.9,537.7 L267.6,537.3 L269.2,539.5 L270.9,540.2 L272.5,538.4 L274.1,536.0 L275.8,538.7 L277.4,532.6 L279.0,540.2 L280.7,539.5 L282.3,541.6 L283.9,534.4 L285.6,540.3 L287.2,539.2 L288.9,528.5 L290.5,540.2 L292.1,540.0 L293.8,540.3 L295.4,530.9 L297.0,541.0 L298.7,529.9 L300.3,538.3 L301.9,536.8 L303.6,536.0 L305.2,539.7 L306.8,533.5 L308.5,540.4 L310.1,530.0 L311.8,537.7 L313.4,539.5 L315.0,538.0 L316.7,540.7 L318.3,540.4 L319.9,540.2 L321.6,537.4 L323.2,538.3 L324.8,534.5 L326.5,533.9 L328.1,539.2 L329.7,541.3 L331.4,539.9 L333.0,537.0 L334.7,541.0 L336.3,538.2 L337.9,540.0 L339.6,536.8 L341.2,539.3 L342.8,533.8 L344.5,536.6 L346.1,536.6 L347.7,536.3 L349.4,540.4 L351.0,539.5 L352.7,533.4 L354.3,531.8 L355.9,533.9 L357.6,538.9 L359.2,536.3 L360.8,540.3 L362.5,539.6 L364.1,537.9 L365.7,539.5 L367.4,535.1 L369.0,540.4 L370.6,531.3 L372.3,541.6 L373.9,536.4 L375.6,540.4 L377.2,532.3 L378.8,539.4 L380.5,538.1 L382.1,538.7 L383.7,541.6 L385.4,531.9 L387.0,536.0 L388.6,539.8 L390.3,540.6 L391.9,534.1 L393.5,529.6 L395.2,541.0 L396.8,539.9 L398.5,533.6 L400.1,540.4 L401.7,534.7 L403.4,536.3 L405.0,532.1 L406.6,539.3 L408.3,537.7 L409.9,539.3 L411.5,540.8 L413.2,537.0 L414.8,538.4 L416.5,535.2 L418.1,542.0 L419.7,539.0 L421.4,534.9 L423.0,539.4 L424.6,538.5 L426.3,531.1 L427.9,538.1 L429.5,539.7 L431.2,540.1 L432.8,540.0 L434.4,531.1 L436.1,536.0 L437.7,541.9 L439.4,536.0 L441.0,538.8 L442.6,531.6 L444.3,540.6 L445.9,539.8 L447.5,532.7 L449.2,534.1 L450.8,540.8 L452.4,537.8 L454.1,539.3 L455.7,540.6 L457.3,540.5 L459.0,539.7 L460.6,535.6 L462.3,535.0 L463.9,538.7 L465.5,532.6 L467.2,540.2 L468.8,530.2 L470.4,540.3 L472.1,539.4 L473.7,538.7 L475.3,533.3 L477.0,528.6 L478.6,539.7 L480.3,541.5 L481.9,535.6 L483.5,538.4 L485.2,535.1 L486.8,535.2 L488.4,539.5 L490.1,540.2 L491.7,539.1 L493.3,541.5 L495.0,539.5 L496.6,534.0 L498.2,537.0 L499.9,539.4 L501.5,540.0 L503.2,540.6 L504.8,536.4 L506.4,538.7 L508.1,539.9 L509.7,529.2 L511.3,532.4 L513.0,539.9 L514.6,539.7 L516.2,540.8 L517.9,534.9 L519.5,532.3 L521.1,530.4 L522.8,540.4 L524.4,540.1 L526.1,538.6 L527.7,540.1 L529.3,540.8 L531.0,534.7 L532.6,536.4 L534.2,532.4 L535.9,539.8 L537.5,539.7 L539.1,541.0 L540.8,537.8 L542.4,540.3 L544.1,537.7 L545.7,536.2 L547.3,540.6 L549.0,539.8 L550.6,540.6 L552.2,537.0 L553.9,538.8 L555.5,535.7 L557.1,533.0 L558.8,540.7 L560.4,529.6 L562.0,532.1 L563.7,538.8 L565.3,541.0 L567.0,540.1 L568.6,535.5 L570.2,534.0 L571.9,539.3 L573.5,537.9 L575.1,538.4 L576.8,539.1 L578.4,535.9 L580.0,533.6 L581.7,539.8 L583.3,529.6 L584.9,539.8 L586.6,537.5 L588.2,540.5 L589.9,540.9 L591.5,537.8 L593.1,539.8 L594.8,539.7 L596.4,539.7 L598.0,528.5 L599.7,538.6 L601.3,534.7 L602.9,534.4 L604.6,539.1 L606.2,540.1 L607.9,533.2 L609.5,538.4 L611.1,538.5 L612.8,534.4 L614.4,540.5 L616.0,539.5 L617.7,538.2 L619.3,540.4 L620.9,533.4 L622.6,539.7 L624.2,533.6 L625.8,540.0 L627.5,540.7 L629.1,539.5 L630.8,531.6 L632.4,539.7 L634.0,535.0 L635.7,540.0 L637.3,535.9 L638.9,539.2 L640.6,531.8 L642.2,540.5 L643.8,538.1 L645.5,538.4 L647.1,537.9 L648.7,540.0 L650.4,536.3 L652.0,532.7 L653.7,539.8 L655.3,533.9 L656.9,535.5 L658.6,537.6 L660.2,537.8 L661.8,540.6 L663.5,539.7 L665.1,540.2 L666.7,539.3 L668.4,528.1 L670.0,529.8 L671.7,531.9 L673.3,540.4 L674.9,540.4 L676.6,539.4 L678.2,536.9 L679.8,540.4 L681.5,538.3 L683.1,540.7 L684.7,536.5 L686.4,539.8 L688.0,533.2 L689.6,539.3 L691.3,536.3 L692.9,535.6 L694.6,538.8 L696.2,539.3 L697.8,534.8 L699.5,531.7 L701.1,534.0 L702.7,535.5 L704.4,538.5 L706.0,538.3 L707.6,538.3 L709.3,539.9 L710.9,539.3 L712.5,536.1 L714.2,537.7 L715.8,541.4 L717.5,531.7 L719.1,536.1 L720.7,532.0 L722.4,540.0 L724.0,532.0" class="sut"/>
<path d="M89.3,541.7 L90.9,534.9 L92.5,541.4 L94.2,536.4 L95.8,538.5 L97.5,527.9 L99.1,542.2 L100.7,542.9 L102.4,538.9 L104.0,536.8 L105.6,542.8 L107.3,543.3 L108.9,541.4 L110.5,543.1 L112.2,543.5 L113.8,519.3 L115.4,543.1 L117.1,534.0 L118.7,530.1 L120.4,541.2 L122.0,544.2 L123.6,540.0 L125.3,542.5 L126.9,542.9 L128.5,514.3 L130.2,528.5 L131.8,532.0 L133.4,543.1 L135.1,542.3 L136.7,538.7 L138.3,537.6 L140.0,527.5 L141.6,543.5 L143.3,542.3 L144.9,543.7 L146.5,543.2 L148.2,544.0 L149.8,541.6 L151.4,540.4 L153.1,542.0 L154.7,543.7 L156.3,529.8 L158.0,538.5 L159.6,542.4 L161.3,542.9 L162.9,537.6 L164.5,527.0 L166.2,542.0 L167.8,538.3 L169.4,543.4 L171.1,542.6 L172.7,540.4 L174.3,515.3 L176.0,529.4 L177.6,542.5 L179.2,543.9 L180.9,541.8 L182.5,544.4 L184.2,542.6 L185.8,538.7 L187.4,534.1 L189.1,529.8 L190.7,543.3 L192.3,544.1 L194.0,542.1 L195.6,540.9 L197.2,543.8 L198.9,541.6 L200.5,537.8 L202.1,543.8 L203.8,544.4 L205.4,542.2 L207.1,538.6 L208.7,543.7 L210.3,538.0 L212.0,528.8 L213.6,540.6 L215.2,528.2 L216.9,526.8 L218.5,544.0 L220.1,543.2 L221.8,540.1 L223.4,544.1 L225.1,528.5 L226.7,543.4 L228.3,537.3 L230.0,542.1 L231.6,537.7 L233.2,540.0 L234.9,528.8 L236.5,537.9 L238.1,541.0 L239.8,529.0 L241.4,542.1 L243.0,544.1 L244.7,543.7 L246.3,542.5 L248.0,543.0 L249.6,542.8 L251.2,544.1 L252.9,522.9 L254.5,537.5 L256.1,540.6 L257.8,529.2 L259.4,543.9 L261.0,544.2 L262.7,529.9 L264.3,539.4 L265.9,543.6 L267.6,537.6 L269.2,543.0 L270.9,543.9 L272.5,538.7 L274.1,542.9 L275.8,538.4 L277.4,527.4 L279.0,543.3 L280.7,542.6 L282.3,544.2 L283.9,533.8 L285.6,544.1 L287.2,541.2 L288.9,526.8 L290.5,543.6 L292.1,542.0 L293.8,544.1 L295.4,528.6 L297.0,543.4 L298.7,526.1 L300.3,543.3 L301.9,539.4 L303.6,534.8 L305.2,543.0 L306.8,531.3 L308.5,544.2 L310.1,526.6 L311.8,538.2 L313.4,543.6 L315.0,543.1 L316.7,544.1 L318.3,544.2 L319.9,544.0 L321.6,540.0 L323.2,544.0 L324.8,534.8 L326.5,531.0 L328.1,542.9 L329.7,544.2 L331.4,544.4 L333.0,541.3 L334.7,544.2 L336.3,543.6 L337.9,542.8 L339.6,537.3 L341.2,543.7 L342.8,530.2 L344.5,538.3 L346.1,543.5 L347.7,533.7 L349.4,544.3 L351.0,542.7 L352.7,531.1 L354.3,527.3 L355.9,530.6 L357.6,543.1 L359.2,543.2 L360.8,542.9 L362.5,544.3 L364.1,539.8 L365.7,544.1 L367.4,536.7 L369.0,544.2 L370.6,539.9 L372.3,531.0 L373.9,536.5 L375.6,544.0 L377.2,527.2 L378.8,543.1 L380.5,543.7 L382.1,541.7 L383.7,544.1 L385.4,529.1 L387.0,540.0 L388.6,543.9 L390.3,542.3 L391.9,539.5 L393.5,527.1 L395.2,543.2 L396.8,544.2 L398.5,530.4 L400.1,544.1 L401.7,532.9 L403.4,542.1 L405.0,527.2 L406.6,542.0 L408.3,538.7 L409.9,544.3 L411.5,544.2 L413.2,539.6 L414.8,544.2 L416.5,534.4 L418.1,544.3 L419.7,542.9 L421.4,531.4 L423.0,543.8 L424.6,541.8 L426.3,525.9 L427.9,544.2 L429.5,543.7 L431.2,542.9 L432.8,543.8 L434.4,530.0 L436.1,539.6 L437.7,544.3 L439.4,543.1 L441.0,540.4 L442.6,527.5 L444.3,543.4 L445.9,544.0 L447.5,535.8 L449.2,537.1 L450.8,542.9 L452.4,543.7 L454.1,542.7 L455.7,544.2 L457.3,543.7 L459.0,542.1 L460.6,537.8 L462.3,536.8 L463.9,539.7 L465.5,529.0 L467.2,543.5 L468.8,525.6 L470.4,543.9 L472.1,542.1 L473.7,543.9 L475.3,530.3 L477.0,521.5 L478.6,544.1 L480.3,543.5 L481.9,537.1 L483.5,544.0 L485.2,534.5 L486.8,531.5 L488.4,543.2 L490.1,543.0 L491.7,543.6 L493.3,544.5 L495.0,542.4 L496.6,533.4 L498.2,539.6 L499.9,544.3 L501.5,543.2 L503.2,544.1 L504.8,541.6 L506.4,538.2 L508.1,543.9 L509.7,524.0 L511.3,527.2 L513.0,542.4 L514.6,543.2 L516.2,544.2 L517.9,534.5 L519.5,526.8 L521.1,530.0 L522.8,543.3 L524.4,543.8 L526.1,542.4 L527.7,544.0 L529.3,543.4 L531.0,539.5 L532.6,538.1 L534.2,527.6 L535.9,542.7 L537.5,544.0 L539.1,544.2 L540.8,541.0 L542.4,543.9 L544.1,544.0 L545.7,536.6 L547.3,544.2 L549.0,544.0 L550.6,544.0 L552.2,542.6 L553.9,539.0 L555.5,536.7 L557.1,530.1 L558.8,542.6 L560.4,524.7 L562.0,526.3 L563.7,543.6 L565.3,543.0 L567.0,543.2 L568.6,542.5 L570.2,529.9 L571.9,543.8 L573.5,539.4 L575.1,543.0 L576.8,544.4 L578.4,534.5 L580.0,530.6 L581.7,543.1 L583.3,520.1 L584.9,543.3 L586.6,542.8 L588.2,544.2 L589.9,543.8 L591.5,544.0 L593.1,542.9 L594.8,544.1 L596.4,544.1 L598.0,524.4 L599.7,544.2 L601.3,534.1 L602.9,530.8 L604.6,542.7 L606.2,543.4 L607.9,528.8 L609.5,539.8 L611.1,543.1 L612.8,536.9 L614.4,542.5 L616.0,543.4 L617.7,538.7 L619.3,543.8 L620.9,536.7 L622.6,540.5 L624.2,530.6 L625.8,544.1 L627.5,542.2 L629.1,544.4 L630.8,526.6 L632.4,541.3 L634.0,542.5 L635.7,543.3 L637.3,533.6 L638.9,542.4 L640.6,529.6 L642.2,542.0 L643.8,542.7 L645.5,543.1 L647.1,538.7 L648.7,544.5 L650.4,534.4 L652.0,529.8 L653.7,544.1 L655.3,530.4 L656.9,540.2 L658.6,537.8 L660.2,544.0 L661.8,542.8 L663.5,543.8 L665.1,544.3 L666.7,543.1 L668.4,522.2 L670.0,537.8 L671.7,527.6 L673.3,543.0 L674.9,544.0 L676.6,544.1 L678.2,541.4 L679.8,544.3 L681.5,543.8 L683.1,543.9 L684.7,537.3 L686.4,543.7 L688.0,530.2 L689.6,542.8 L691.3,538.0 L692.9,537.8 L694.6,540.0 L696.2,543.1 L697.8,530.9 L699.5,529.2 L701.1,529.6 L702.7,540.7 L704.4,542.3 L706.0,542.0 L707.6,543.8 L709.3,542.4 L710.9,538.7 L712.5,542.3 L714.2,537.4 L715.8,544.3 L717.5,526.8 L719.1,536.1 L720.7,526.5 L722.4,544.4 L724.0,525.3" class="db"/>
<text x="86" y="561.0" class="muted">Network transmit</text>
<rect x="86" y="568.0" width="49.1" height="40" class="warm"/>
<line x1="86" y1="608.0" x2="724" y2="608.0" class="grid"/><text x="78.0" y="612.0" class="muted" text-anchor="end">0 B/s</text>
<line x1="86" y1="588.0" x2="724" y2="588.0" class="grid"/><text x="78.0" y="592.0" class="muted" text-anchor="end">50 KB/s</text>
<line x1="86" y1="568.0" x2="724" y2="568.0" class="grid"/><text x="78.0" y="572.0" class="muted" text-anchor="end">100 KB/s</text>
<path d="M89.3,599.5 L90.9,596.6 L92.5,592.7 L94.2,596.9 L95.8,598.8 L97.5,578.6 L99.1,600.7 L100.7,594.7 L102.4,596.5 L104.0,598.4 L105.6,592.4 L107.3,601.1 L108.9,599.4 L110.5,587.0 L112.2,595.0 L113.8,587.9 L115.4,601.3 L117.1,581.2 L118.7,595.8 L120.4,600.0 L122.0,594.4 L123.6,597.4 L125.3,601.9 L126.9,595.4 L128.5,577.8 L130.2,594.9 L131.8,594.5 L133.4,582.2 L135.1,601.0 L136.7,596.6 L138.3,599.3 L140.0,593.6 L141.6,593.7 L143.3,602.0 L144.9,601.5 L146.5,594.6 L148.2,595.1 L149.8,600.4 L151.4,597.1 L153.1,577.6 L154.7,600.6 L156.3,594.3 L158.0,597.8 L159.6,599.7 L161.3,602.1 L162.9,591.1 L164.5,593.1 L166.2,600.5 L167.8,584.5 L169.4,594.1 L171.1,600.7 L172.7,598.7 L174.3,587.0 L176.0,586.7 L177.6,600.8 L179.2,600.5 L180.9,601.3 L182.5,594.3 L184.2,600.0 L185.8,597.5 L187.4,577.4 L189.1,594.2 L190.7,603.0 L192.3,592.6 L194.0,602.1 L195.6,598.6 L197.2,590.5 L198.9,600.0 L200.5,598.8 L202.1,584.8 L203.8,595.6 L205.4,600.4 L207.1,598.1 L208.7,581.9 L210.3,599.0 L212.0,586.0 L213.6,601.2 L215.2,592.3 L216.9,577.8 L218.5,593.8 L220.1,601.4 L221.8,598.3 L223.4,580.1 L225.1,592.4 L226.7,601.4 L228.3,583.9 L230.0,598.8 L231.6,590.5 L233.2,601.2 L234.9,593.6 L236.5,594.4 L238.1,592.1 L239.8,593.3 L241.4,600.3 L243.0,600.8 L244.7,594.0 L246.3,600.6 L248.0,600.0 L249.6,581.6 L251.2,595.3 L252.9,588.8 L254.5,598.1 L256.1,588.0 L257.8,594.1 L259.4,602.6 L261.0,593.1 L262.7,594.3 L264.3,599.5 L265.9,590.2 L267.6,598.3 L269.2,601.0 L270.9,590.5 L272.5,599.3 L274.1,598.5 L275.8,599.9 L277.4,594.2 L279.0,601.4 L280.7,593.4 L282.3,603.0 L283.9,595.2 L285.6,580.4 L287.2,601.2 L288.9,590.6 L290.5,582.4 L292.1,601.7 L293.8,594.2 L295.4,592.4 L297.0,602.6 L298.7,590.4 L300.3,593.5 L301.9,598.1 L303.6,597.4 L305.2,586.7 L306.8,595.2 L308.5,594.4 L310.1,591.5 L311.8,599.1 L313.4,583.2 L315.0,593.6 L316.7,601.9 L318.3,601.5 L319.9,590.4 L321.6,599.9 L323.2,600.6 L324.8,594.8 L326.5,595.4 L328.1,600.8 L329.7,595.2 L331.4,601.0 L333.0,598.9 L334.7,589.5 L336.3,600.4 L337.9,601.8 L339.6,592.8 L341.2,600.2 L342.8,588.3 L344.5,598.7 L346.1,598.7 L347.7,592.0 L349.4,594.3 L351.0,601.1 L352.7,595.0 L354.3,574.4 L355.9,588.0 L357.6,600.2 L359.2,598.5 L360.8,593.8 L362.5,600.6 L364.1,599.3 L365.7,594.9 L367.4,598.0 L369.0,594.2 L370.6,599.5 L372.3,596.4 L373.9,596.9 L375.6,601.5 L377.2,586.1 L378.8,601.0 L380.5,600.3 L382.1,589.1 L383.7,603.1 L385.4,593.7 L387.0,579.2 L388.6,593.8 L390.3,602.0 L391.9,597.3 L393.5,571.8 L395.2,602.7 L396.8,593.9 L398.5,594.9 L400.1,601.6 L401.7,592.7 L403.4,598.9 L405.0,585.9 L406.6,600.4 L408.3,600.2 L409.9,588.3 L411.5,594.6 L413.2,600.9 L414.8,599.2 L416.5,596.1 L418.1,603.3 L419.7,593.2 L421.4,596.7 L423.0,600.2 L424.6,573.9 L426.3,592.4 L427.9,600.5 L429.5,585.8 L431.2,594.5 L432.8,601.4 L434.4,592.2 L436.1,580.0 L437.7,603.3 L439.4,590.9 L441.0,601.3 L442.6,593.0 L444.3,600.2 L445.9,593.8 L447.5,596.5 L449.2,597.0 L450.8,586.3 L452.4,592.8 L454.1,600.8 L455.7,601.7 L457.3,601.5 L459.0,594.1 L460.6,597.5 L462.3,595.7 L463.9,581.3 L465.5,594.1 L467.2,593.9 L468.8,590.9 L470.4,601.5 L472.1,586.8 L473.7,593.9 L475.3,594.7 L477.0,590.3 L478.6,585.8 L480.3,595.5 L481.9,596.7 L483.5,600.7 L485.2,577.4 L486.8,596.9 L488.4,593.1 L490.1,601.7 L491.7,599.9 L493.3,579.7 L495.0,600.7 L496.6,596.2 L498.2,597.1 L499.9,593.4 L501.5,601.1 L503.2,601.8 L504.8,586.9 L506.4,599.8 L508.1,593.9 L509.7,590.6 L511.3,594.1 L513.0,600.2 L514.6,593.5 L516.2,601.9 L517.9,596.6 L519.5,593.2 L521.1,593.0 L522.8,595.0 L524.4,601.5 L526.1,599.6 L527.7,594.0 L529.3,602.5 L531.0,597.1 L532.6,597.5 L534.2,575.3 L535.9,601.1 L537.5,593.9 L539.1,601.9 L540.8,600.0 L542.4,585.6 L544.1,592.8 L545.7,597.7 L547.3,601.7 L549.0,581.8 L550.6,601.7 L552.2,599.8 L553.9,600.0 L555.5,597.0 L557.1,586.9 L558.8,602.4 L560.4,591.4 L562.0,592.1 L563.7,592.6 L565.3,602.5 L567.0,601.1 L568.6,584.4 L570.2,588.3 L571.9,600.0 L573.5,599.3 L575.1,588.0 L576.8,594.2 L578.4,597.0 L580.0,595.1 L581.7,584.1 L583.3,590.8 L584.9,593.8 L586.6,598.6 L588.2,601.7 L589.9,594.2 L591.5,600.2 L593.1,601.4 L594.8,582.3 L596.4,594.0 L598.0,590.5 L599.7,600.8 L601.3,584.3 L602.9,596.1 L604.6,600.8 L606.2,593.8 L607.9,594.1 L609.5,600.9 L611.1,585.2 L612.8,596.8 L614.4,602.1 L616.0,596.8 L617.7,592.4 L619.3,601.4 L620.9,595.9 L622.6,600.6 L624.2,595.0 L625.8,594.0 L627.5,602.1 L629.1,600.6 L630.8,579.1 L632.4,593.6 L634.0,597.0 L635.7,601.1 L637.3,578.2 L638.9,593.5 L640.6,593.0 L642.2,602.0 L643.8,587.6 L645.5,600.9 L647.1,591.6 L648.7,601.0 L650.4,597.6 L652.0,575.8 L653.7,593.8 L655.3,595.4 L656.9,596.4 L658.6,584.3 L660.2,592.5 L661.8,602.1 L663.5,600.4 L665.1,583.9 L666.7,593.6 L668.4,590.6 L670.0,589.1 L671.7,581.5 L673.3,602.0 L674.9,594.3 L676.6,600.3 L678.2,598.5 L679.8,586.0 L681.5,593.6 L683.1,601.7 L684.7,598.2 L686.4,600.2 L688.0,587.2 L689.6,601.0 L691.3,598.6 L692.9,579.3 L694.6,599.9 L696.2,593.4 L697.8,596.7 L699.5,592.6 L701.1,590.1 L702.7,589.2 L704.4,600.7 L706.0,599.3 L707.6,573.7 L709.3,600.5 L710.9,600.3 L712.5,597.4 L714.2,598.5 L715.8,595.2 L717.5,593.2 L719.1,597.4 L720.7,574.1 L722.4,594.0 L724.0,593.4" class="sut"/>
<path d="M89.3,605.0 L90.9,605.2 L92.5,598.0 L94.2,605.0 L95.8,605.4 L97.5,605.8 L99.1,605.5 L100.7,606.0 L102.4,604.4 L104.0,605.7 L105.6,605.5 L107.3,605.5 L108.9,605.3 L110.5,605.5 L112.2,606.1 L113.8,604.9 L115.4,605.7 L117.1,605.0 L118.7,605.9 L120.4,605.5 L122.0,605.7 L123.6,604.6 L125.3,606.0 L126.9,605.7 L128.5,604.9 L130.2,605.9 L131.8,605.2 L133.4,605.9 L135.1,605.8 L136.7,604.5 L138.3,606.0 L140.0,605.7 L141.6,605.5 L143.3,606.2 L144.9,605.6 L146.5,605.3 L148.2,606.1 L149.8,605.6 L151.4,604.4 L153.1,605.5 L154.7,605.4 L156.3,605.5 L158.0,605.5 L159.6,605.2 L161.3,605.9 L162.9,605.6 L164.5,605.7 L166.2,605.5 L167.8,606.1 L169.4,605.8 L171.1,605.6 L172.7,605.2 L174.3,605.4 L176.0,605.6 L177.6,605.6 L179.2,605.2 L180.9,606.1 L182.5,605.7 L184.2,605.2 L185.8,604.9 L187.4,605.8 L189.1,605.4 L190.7,606.3 L192.3,605.1 L194.0,606.2 L195.6,605.0 L197.2,605.6 L198.9,605.4 L200.5,605.7 L202.1,605.0 L203.8,606.4 L205.4,605.5 L207.1,605.2 L208.7,605.4 L210.3,605.8 L212.0,605.4 L213.6,606.2 L215.2,605.0 L216.9,605.6 L218.5,605.6 L220.1,605.8 L221.8,604.8 L223.4,605.6 L225.1,604.9 L226.7,605.8 L228.3,605.9 L230.0,604.7 L231.6,605.5 L233.2,606.3 L234.9,605.4 L236.5,606.3 L238.1,605.5 L239.8,605.3 L241.4,605.5 L243.0,605.6 L244.7,605.2 L246.3,606.0 L248.0,605.1 L249.6,605.5 L251.2,606.1 L252.9,604.6 L254.5,605.5 L256.1,605.8 L257.8,605.5 L259.4,606.1 L261.0,605.3 L262.7,605.5 L264.3,605.7 L265.9,605.1 L267.6,605.7 L269.2,605.6 L270.9,605.6 L272.5,605.7 L274.1,604.6 L275.8,606.3 L277.4,606.0 L279.0,605.7 L280.7,605.6 L282.3,606.3 L283.9,605.1 L285.6,605.8 L287.2,606.1 L288.9,604.7 L290.5,605.7 L292.1,606.0 L293.8,605.8 L295.4,604.9 L297.0,606.2 L298.7,605.1 L300.3,605.5 L301.9,605.1 L303.6,605.8 L305.2,606.0 L306.8,605.6 L308.5,605.8 L310.1,605.0 L311.8,605.8 L313.4,605.5 L315.0,605.7 L316.7,605.8 L318.3,605.6 L319.9,605.6 L321.6,605.7 L323.2,605.3 L324.8,605.1 L326.5,605.7 L328.1,605.6 L329.7,605.6 L331.4,605.9 L333.0,605.0 L334.7,606.2 L336.3,605.3 L337.9,605.8 L339.6,605.7 L341.2,605.1 L342.8,606.1 L344.5,605.5 L346.1,604.6 L347.7,605.6 L349.4,606.2 L351.0,605.7 L352.7,605.6 L354.3,605.7 L355.9,606.0 L357.6,605.3 L359.2,604.5 L360.8,606.2 L362.5,605.3 L364.1,605.6 L365.7,605.2 L367.4,605.7 L369.0,605.8 L370.6,605.6 L372.3,606.2 L373.9,605.6 L375.6,605.6 L377.2,605.9 L378.8,605.5 L380.5,605.2 L382.1,605.5 L383.7,606.2 L385.4,605.4 L387.0,605.1 L388.6,605.6 L390.3,606.1 L391.9,604.8 L393.5,604.9 L395.2,606.3 L396.8,605.6 L398.5,605.7 L400.1,605.7 L401.7,605.7 L403.4,605.0 L405.0,605.8 L406.6,605.5 L408.3,606.2 L409.9,605.2 L411.5,605.9 L413.2,605.5 L414.8,605.4 L416.5,605.5 L418.1,606.4 L419.7,605.5 L421.4,606.2 L423.0,605.1 L424.6,605.7 L426.3,605.6 L427.9,605.2 L429.5,605.6 L431.2,606.0 L432.8,605.6 L434.4,604.6 L436.1,605.5 L437.7,606.4 L439.4,604.5 L441.0,606.3 L442.6,605.5 L444.3,606.3 L445.9,605.6 L447.5,605.2 L449.2,605.1 L450.8,606.0 L452.4,605.3 L454.1,605.5 L455.7,605.7 L457.3,605.7 L459.0,605.9 L460.6,605.2 L462.3,604.5 L463.9,606.0 L465.5,605.5 L467.2,605.7 L468.8,604.9 L470.4,605.6 L472.1,605.7 L473.7,605.6 L475.3,605.6 L477.0,605.4 L478.6,605.5 L480.3,606.3 L481.9,604.9 L483.5,605.3 L485.2,605.5 L486.8,606.3 L488.4,605.4 L490.1,605.9 L491.7,605.1 L493.3,606.3 L495.0,605.7 L496.6,605.6 L498.2,605.0 L499.9,605.4 L501.5,605.6 L503.2,605.7 L504.8,604.9 L506.4,606.0 L508.1,605.6 L509.7,605.2 L511.3,605.9 L513.0,605.8 L514.6,605.4 L516.2,605.8 L517.9,605.4 L519.5,605.8 L521.1,605.0 L522.8,606.2 L524.4,605.7 L526.1,605.2 L527.7,605.7 L529.3,606.2 L531.0,604.7 L532.6,605.2 L534.2,606.1 L535.9,605.8 L537.5,605.5 L539.1,605.9 L540.8,605.5 L542.4,605.7 L544.1,605.2 L545.7,605.5 L547.3,605.7 L549.0,605.7 L550.6,605.7 L552.2,605.1 L553.9,606.0 L555.5,605.1 L557.1,605.6 L558.8,606.2 L560.4,605.2 L562.0,605.7 L563.7,605.1 L565.3,606.3 L567.0,605.5 L568.6,604.7 L570.2,605.7 L571.9,605.6 L573.5,605.5 L575.1,605.3 L576.8,605.7 L578.4,605.7 L580.0,605.7 L581.7,606.1 L583.3,606.0 L584.9,605.7 L586.6,604.6 L588.2,605.7 L589.9,606.2 L591.5,605.1 L593.1,605.7 L594.8,605.6 L596.4,605.6 L598.0,605.0 L599.7,605.4 L601.3,605.5 L602.9,606.0 L604.6,605.6 L606.2,605.6 L607.9,605.6 L609.5,605.5 L611.1,605.1 L612.8,605.1 L614.4,606.1 L616.0,605.3 L617.7,605.9 L619.3,605.6 L620.9,604.8 L622.6,606.1 L624.2,605.7 L625.8,605.7 L627.5,606.2 L629.1,605.2 L630.8,605.7 L632.4,606.0 L634.0,604.2 L635.7,605.5 L637.3,606.0 L638.9,605.7 L640.6,604.9 L642.2,606.2 L643.8,605.1 L645.5,605.4 L647.1,605.7 L648.7,605.4 L650.4,605.9 L652.0,605.9 L653.7,605.5 L655.3,605.8 L656.9,604.4 L658.6,606.0 L660.2,605.2 L661.8,606.1 L663.5,605.3 L665.1,605.6 L666.7,605.7 L668.4,605.5 L670.0,602.0 L671.7,605.9 L673.3,606.0 L674.9,605.8 L676.6,605.1 L678.2,605.0 L679.8,605.8 L681.5,605.5 L683.1,605.8 L684.7,605.6 L686.4,605.5 L688.0,605.7 L689.6,605.6 L691.3,605.6 L692.9,605.0 L694.6,605.7 L696.2,605.6 L697.8,606.2 L699.5,605.1 L701.1,606.2 L702.7,604.4 L704.4,605.4 L706.0,605.1 L707.6,605.3 L709.3,605.5 L710.9,606.2 L712.5,604.6 L714.2,605.8 L715.8,606.1 L717.5,605.6 L719.1,605.4 L720.7,605.8 L722.4,605.6 L724.0,606.0" class="db"/>
<text x="86.0" y="626.0" class="muted" text-anchor="middle">0 min</text>
<text x="184.2" y="626.0" class="muted" text-anchor="middle">10 min</text>
<text x="282.3" y="626.0" class="muted" text-anchor="middle">20 min</text>
<text x="380.5" y="626.0" class="muted" text-anchor="middle">30 min</text>
<text x="478.6" y="626.0" class="muted" text-anchor="middle">40 min</text>
<text x="576.8" y="626.0" class="muted" text-anchor="middle">50 min</text>
<text x="674.9" y="626.0" class="muted" text-anchor="middle">60 min</text>
</svg>
