<svg xmlns="http://www.w3.org/2000/svg" viewBox="0 0 900 1058" width="900" height="1058" role="img">
<style>
text { fill: #52514e; font: 12px -apple-system, 'Segoe UI', Helvetica, Arial, sans-serif; }
.title { fill: #0b0b0b; font-weight: 600; }
.muted { fill: #8a8880; font-size: 11px; }
.grid { stroke: #e4e2dd; stroke-width: 1; }
.p50 { fill: #7db4ea; } .p90 { fill: #3d7fd0; } .p99 { fill: #1b5cab; }
.measured { fill: #2a78d6; }
.floor { fill: none; stroke: #8a8880; stroke-width: 1.5; stroke-dasharray: 4 3; }
.earned { fill: #1baf7a; font-weight: 600; }
.notearned { fill: #b3261e; font-weight: 600; }
.slo { stroke: #b3261e; stroke-width: 1.5; stroke-dasharray: 6 4; }
.slotext { fill: #b3261e; font-size: 11px; }
@media (prefers-color-scheme: dark) {
text { fill: #c3c2b7; }
.title { fill: #ffffff; }
.muted { fill: #8f8e85; }
.grid { stroke: #3a3a38; }
.p50 { fill: #3d5f82; } .p90 { fill: #3987e5; } .p99 { fill: #9ec7ef; }
.measured { fill: #3987e5; }
.floor { stroke: #8f8e85; }
.earned { fill: #26c78d; }
.notearned { fill: #e5484d; }
.slo { stroke: #e5484d; }
.slotext { fill: #e5484d; }
}
</style>
<text x="24" y="28" class="title">Latency percentiles — class POC measured run (PERF-hospital_sim-class_POC)</text>
<text x="24" y="44" class="muted">Re-derived from the committed HDR V2 histograms · offered load 2.0/s sustained for 3600 s · errors are a verdict input, not shown</text>
<rect x="24" y="54" width="14" height="10" rx="3" class="p50"/><text x="42.0" y="63" class="muted">p50</text>
<rect x="86" y="54" width="14" height="10" rx="3" class="p90"/><text x="104.0" y="63" class="muted">p90</text>
<rect x="148" y="54" width="14" height="10" rx="3" class="p99"/><text x="166.0" y="63" class="muted">p99</text>
<line x1="238.0" y1="78" x2="238.0" y2="1024.0" class="grid"/><text x="238.0" y="1040.0" class="muted" text-anchor="middle">0.1 ms</text>
<line x1="364.4" y1="78" x2="364.4" y2="1024.0" class="grid"/><text x="364.4" y="1040.0" class="muted" text-anchor="middle">1 ms</text>
<line x1="490.8" y1="78" x2="490.8" y2="1024.0" class="grid"/><text x="490.8" y="1040.0" class="muted" text-anchor="middle">10 ms</text>
<line x1="617.3" y1="78" x2="617.3" y2="1024.0" class="grid"/><text x="617.3" y="1040.0" class="muted" text-anchor="middle">100 ms</text>
<line x1="743.7" y1="78" x2="743.7" y2="1024.0" class="grid"/><text x="743.7" y="1040.0" class="muted" text-anchor="middle">1000 ms</text>
<line x1="743.7" y1="78" x2="743.7" y2="1024.0" class="slo"/><text x="749.7" y="90.0" class="slotext">SLO p99 &#8804; 1 s</text>
<text x="228.0" y="102.5" text-anchor="end">adhoc_query</text>
<rect x="238.0" y="83.0" width="312.4" height="9" rx="2" class="p50"/>
<rect x="238.0" y="94.0" width="323.1" height="9" rx="2" class="p90"/>
<rect x="238.0" y="105.0" width="337.1" height="9" rx="2" class="p99"/>
<text x="581.1" y="113.0" class="muted">46</text>
<text x="228.0" y="145.5" text-anchor="end">composition_commit</text>
<rect x="238.0" y="126.0" width="322.4" height="9" rx="2" class="p50"/>
<rect x="238.0" y="137.0" width="363.5" height="9" rx="2" class="p90"/>
<rect x="238.0" y="148.0" width="376.5" height="9" rx="2" class="p99"/>
<text x="620.5" y="156.0" class="muted">95</text>
<text x="228.0" y="188.5" text-anchor="end">composition_delete</text>
<rect x="238.0" y="169.0" width="288.5" height="9" rx="2" class="p50"/>
<rect x="238.0" y="180.0" width="303.5" height="9" rx="2" class="p90"/>
<rect x="238.0" y="191.0" width="303.5" height="9" rx="2" class="p99"/>
<text x="547.5" y="199.0" class="muted">25</text>
<text x="228.0" y="231.5" text-anchor="end">composition_read</text>
<rect x="238.0" y="212.0" width="285.7" height="9" rx="2" class="p50"/>
<rect x="238.0" y="223.0" width="300.5" height="9" rx="2" class="p90"/>
<rect x="238.0" y="234.0" width="311.8" height="9" rx="2" class="p99"/>
<text x="555.8" y="242.0" class="muted">29</text>
<text x="228.0" y="274.5" text-anchor="end">composition_read_current</text>
<rect x="238.0" y="255.0" width="286.8" height="9" rx="2" class="p50"/>
<rect x="238.0" y="266.0" width="302.2" height="9" rx="2" class="p90"/>
<rect x="238.0" y="277.0" width="321.6" height="9" rx="2" class="p99"/>
<text x="565.6" y="285.0" class="muted">35</text>
<text x="228.0" y="317.5" text-anchor="end">composition_revision_history</text>
<rect x="238.0" y="298.0" width="265.0" height="9" rx="2" class="p50"/>
<rect x="238.0" y="309.0" width="283.1" height="9" rx="2" class="p90"/>
<rect x="238.0" y="320.0" width="296.2" height="9" rx="2" class="p99"/>
<text x="540.2" y="328.0" class="muted">22</text>
<text x="228.0" y="360.5" text-anchor="end">composition_update</text>
<rect x="238.0" y="341.0" width="318.1" height="9" rx="2" class="p50"/>
<rect x="238.0" y="352.0" width="334.4" height="9" rx="2" class="p90"/>
<rect x="238.0" y="363.0" width="351.4" height="9" rx="2" class="p99"/>
<text x="595.4" y="371.0" class="muted">60</text>
<text x="228.0" y="403.5" text-anchor="end">contribution_commit</text>
<rect x="238.0" y="384.0" width="324.8" height="9" rx="2" class="p50"/>
<rect x="238.0" y="395.0" width="374.7" height="9" rx="2" class="p90"/>
<rect x="238.0" y="406.0" width="381.0" height="9" rx="2" class="p99"/>
<text x="625.0" y="414.0" class="muted">103</text>
<text x="228.0" y="446.5" text-anchor="end">contribution_read</text>
<rect x="238.0" y="427.0" width="277.4" height="9" rx="2" class="p50"/>
<rect x="238.0" y="438.0" width="292.8" height="9" rx="2" class="p90"/>
<rect x="238.0" y="449.0" width="297.5" height="9" rx="2" class="p99"/>
<text x="541.5" y="457.0" class="muted">23</text>
<text x="228.0" y="489.5" text-anchor="end">directory_create</text>
<rect x="238.0" y="470.0" width="267.0" height="9" rx="2" class="p50"/>
<rect x="238.0" y="481.0" width="278.6" height="9" rx="2" class="p90"/>
<rect x="238.0" y="492.0" width="301.0" height="9" rx="2" class="p99"/>
<text x="545.0" y="500.0" class="muted">24</text>
<text x="228.0" y="532.5" text-anchor="end">directory_read</text>
<rect x="238.0" y="513.0" width="266.8" height="9" rx="2" class="p50"/>
<rect x="238.0" y="524.0" width="285.4" height="9" rx="2" class="p90"/>
<rect x="238.0" y="535.0" width="298.3" height="9" rx="2" class="p99"/>
<text x="542.3" y="543.0" class="muted">23</text>
<text x="228.0" y="575.5" text-anchor="end">directory_update</text>
<rect x="238.0" y="556.0" width="291.8" height="9" rx="2" class="p50"/>
<rect x="238.0" y="567.0" width="310.8" height="9" rx="2" class="p90"/>
<rect x="238.0" y="578.0" width="316.2" height="9" rx="2" class="p99"/>
<text x="560.2" y="586.0" class="muted">32</text>
<text x="228.0" y="618.5" text-anchor="end">ehr_create</text>
<rect x="238.0" y="599.0" width="288.9" height="9" rx="2" class="p50"/>
<rect x="238.0" y="610.0" width="301.6" height="9" rx="2" class="p90"/>
<rect x="238.0" y="621.0" width="301.8" height="9" rx="2" class="p99"/>
<text x="545.8" y="629.0" class="muted">24</text>
<text x="228.0" y="661.5" text-anchor="end">ehr_read</text>
<rect x="238.0" y="642.0" width="270.3" height="9" rx="2" class="p50"/>
<rect x="238.0" y="653.0" width="293.2" height="9" rx="2" class="p90"/>
<rect x="238.0" y="664.0" width="318.7" height="9" rx="2" class="p99"/>
<text x="562.7" y="672.0" class="muted">33</text>
<text x="228.0" y="704.5" text-anchor="end">ehr_status_read</text>
<rect x="238.0" y="685.0" width="272.2" height="9" rx="2" class="p50"/>
<rect x="238.0" y="696.0" width="286.4" height="9" rx="2" class="p90"/>
<rect x="238.0" y="707.0" width="289.1" height="9" rx="2" class="p99"/>
<text x="533.1" y="715.0" class="muted">19</text>
<text x="228.0" y="747.5" text-anchor="end">ehr_status_update</text>
<rect x="238.0" y="728.0" width="292.3" height="9" rx="2" class="p50"/>
<rect x="238.0" y="739.0" width="309.1" height="9" rx="2" class="p90"/>
<rect x="238.0" y="750.0" width="312.1" height="9" rx="2" class="p99"/>
<text x="556.1" y="758.0" class="muted">29</text>
<text x="228.0" y="790.5" text-anchor="end">stored_query_execute</text>
<rect x="238.0" y="771.0" width="313.1" height="9" rx="2" class="p50"/>
<rect x="238.0" y="782.0" width="324.4" height="9" rx="2" class="p90"/>
<rect x="238.0" y="793.0" width="335.1" height="9" rx="2" class="p99"/>
<text x="579.1" y="801.0" class="muted">45</text>
<text x="228.0" y="833.5" text-anchor="end">tags_put</text>
<rect x="238.0" y="814.0" width="284.2" height="9" rx="2" class="p50"/>
<rect x="238.0" y="825.0" width="303.3" height="9" rx="2" class="p90"/>
<rect x="238.0" y="836.0" width="315.0" height="9" rx="2" class="p99"/>
<text x="559.0" y="844.0" class="muted">31</text>
<text x="228.0" y="876.5" text-anchor="end">tags_read</text>
<rect x="238.0" y="857.0" width="269.3" height="9" rx="2" class="p50"/>
<rect x="238.0" y="868.0" width="281.3" height="9" rx="2" class="p90"/>
<rect x="238.0" y="879.0" width="289.5" height="9" rx="2" class="p99"/>
<text x="533.5" y="887.0" class="muted">19</text>
<text x="228.0" y="919.5" text-anchor="end">template_get</text>
<rect x="238.0" y="900.0" width="335.1" height="9" rx="2" class="p50"/>
<rect x="238.0" y="911.0" width="364.5" height="9" rx="2" class="p90"/>
<rect x="238.0" y="922.0" width="381.8" height="9" rx="2" class="p99"/>
<text x="625.8" y="930.0" class="muted">105</text>
<text x="228.0" y="962.5" text-anchor="end">template_list</text>
<rect x="238.0" y="943.0" width="333.3" height="9" rx="2" class="p50"/>
<rect x="238.0" y="954.0" width="351.0" height="9" rx="2" class="p90"/>
<rect x="238.0" y="965.0" width="362.5" height="9" rx="2" class="p99"/>
<text x="606.5" y="973.0" class="muted">74</text>
<text x="228.0" y="1005.5" text-anchor="end">ward_query</text>
<rect x="238.0" y="986.0" width="409.6" height="9" rx="2" class="p50"/>
<rect x="238.0" y="997.0" width="429.0" height="9" rx="2" class="p90"/>
<rect x="238.0" y="1008.0" width="460.1" height="9" rx="2" class="p99"/>
<text x="704.1" y="1016.0" class="muted">436</text>
</svg>
