<svg xmlns="http://www.w3.org/2000/svg" viewBox="0 0 760 360" width="760" height="360" role="img">
<style>
text { fill: #52514e; font: 12px -apple-system, 'Segoe UI', Helvetica, Arial, sans-serif; }
.title { fill: #0b0b0b; font-weight: 600; }
.muted { fill: #8a8880; font-size: 11px; }
.grid { stroke: #e4e2dd; stroke-width: 1; }
.p50 { fill: #7db4ea; } .p90 { fill: #3d7fd0; } .p99 { fill: #1b5cab; }
.measured { fill: #2a78d6; }
.floor { fill: none; stroke: #8a8880; stroke-width: 1.5; stroke-dasharray: 4 3; }
.earned { fill: #1baf7a; font-weight: 600; }
.notearned { fill: #b3261e; font-weight: 600; }
.slo { stroke: #b3261e; stroke-width: 1.5; stroke-dasharray: 6 4; }
.slotext { fill: #b3261e; font-size: 11px; }
@media (prefers-color-scheme: dark) {
text { fill: #c3c2b7; }
.title { fill: #ffffff; }
.muted { fill: #8f8e85; }
.grid { stroke: #3a3a38; }
.p50 { fill: #3d5f82; } .p90 { fill: #3987e5; } .p99 { fill: #9ec7ef; }
.measured { fill: #3987e5; }
.floor { stroke: #8f8e85; }
.earned { fill: #26c78d; }
.notearned { fill: #e5484d; }
.slo { stroke: #e5484d; }
.slotext { fill: #e5484d; }
}
</style>
<text x="24" y="28" class="title">Latency percentiles — class POC measured run (PERF-hospital_sim-class_POC)</text>
<text x="24" y="44" class="muted">Re-derived from the committed HDR V2 histograms · offered load 2.0/s sustained for 3600 s · errors are a verdict input, not shown</text>
<line x1="90" y1="300.0" x2="720.0" y2="300.0" class="grid"/><text x="82.0" y="304.0" class="muted" text-anchor="end">0.1 ms</text>
<line x1="90" y1="247.3" x2="720.0" y2="247.3" class="grid"/><text x="82.0" y="251.3" class="muted" text-anchor="end">1 ms</text>
<line x1="90" y1="194.6" x2="720.0" y2="194.6" class="grid"/><text x="82.0" y="198.6" class="muted" text-anchor="end">10 ms</text>
<line x1="90" y1="141.9" x2="720.0" y2="141.9" class="grid"/><text x="82.0" y="145.9" class="muted" text-anchor="end">100 ms</text>
<line x1="90" y1="89.2" x2="720.0" y2="89.2" class="grid"/><text x="82.0" y="93.2" class="muted" text-anchor="end">1000 ms</text>
<line x1="90" y1="89.2" x2="720.0" y2="89.2" class="slo"/><text x="716.0" y="83.2" class="slotext" text-anchor="end">SLO p99 &#8804; 1 s</text>
<rect x="120.0" y="169.7" width="34" height="130.3" rx="4" class="p50"/><text x="137.0" y="316.0" class="muted" text-anchor="middle">p50</text><text x="137.0" y="163.7" text-anchor="middle">30</text>
<rect x="156.0" y="165.3" width="34" height="134.7" rx="4" class="p90"/><text x="173.0" y="316.0" class="muted" text-anchor="middle">p90</text><text x="173.0" y="159.3" text-anchor="middle">36</text>
<rect x="192.0" y="159.4" width="34" height="140.6" rx="4" class="p99"/><text x="209.0" y="316.0" class="muted" text-anchor="middle">p99</text><text x="209.0" y="153.4" text-anchor="middle">46</text>
<text x="171.0" y="334.0" text-anchor="middle">adhoc_query</text>
<rect x="270.0" y="165.6" width="34" height="134.4" rx="4" class="p50"/><text x="287.0" y="316.0" class="muted" text-anchor="middle">p50</text><text x="287.0" y="159.6" text-anchor="middle">35</text>
<rect x="306.0" y="148.4" width="34" height="151.6" rx="4" class="p90"/><text x="323.0" y="316.0" class="muted" text-anchor="middle">p90</text><text x="323.0" y="142.4" text-anchor="middle">75</text>
<rect x="342.0" y="143.0" width="34" height="157.0" rx="4" class="p99"/><text x="359.0" y="316.0" class="muted" text-anchor="middle">p99</text><text x="359.0" y="137.0" text-anchor="middle">95</text>
<text x="321.0" y="334.0" text-anchor="middle">composition_commit</text>
<rect x="420.0" y="179.7" width="34" height="120.3" rx="4" class="p50"/><text x="437.0" y="316.0" class="muted" text-anchor="middle">p50</text><text x="437.0" y="173.7" text-anchor="middle">19</text>
<rect x="456.0" y="173.4" width="34" height="126.6" rx="4" class="p90"/><text x="473.0" y="316.0" class="muted" text-anchor="middle">p90</text><text x="473.0" y="167.4" text-anchor="middle">25</text>
<rect x="492.0" y="173.4" width="34" height="126.6" rx="4" class="p99"/><text x="509.0" y="316.0" class="muted" text-anchor="middle">p99</text><text x="509.0" y="167.4" text-anchor="middle">25</text>
<text x="471.0" y="334.0" text-anchor="middle">composition_delete</text>
<rect x="570.0" y="180.9" width="34" height="119.1" rx="4" class="p50"/><text x="587.0" y="316.0" class="muted" text-anchor="middle">p50</text><text x="587.0" y="174.9" text-anchor="middle">18</text>
<rect x="606.0" y="174.7" width="34" height="125.3" rx="4" class="p90"/><text x="623.0" y="316.0" class="muted" text-anchor="middle">p90</text><text x="623.0" y="168.7" text-anchor="middle">24</text>
<rect x="642.0" y="170.0" width="34" height="130.0" rx="4" class="p99"/><text x="659.0" y="316.0" class="muted" text-anchor="middle">p99</text><text x="659.0" y="164.0" text-anchor="middle">29</text>
<text x="621.0" y="334.0" text-anchor="middle">composition_read</text>
<rect x="720.0" y="180.4" width="34" height="119.6" rx="4" class="p50"/><text x="737.0" y="316.0" class="muted" text-anchor="middle">p50</text><text x="737.0" y="174.4" text-anchor="middle">19</text>
<rect x="756.0" y="174.0" width="34" height="126.0" rx="4" class="p90"/><text x="773.0" y="316.0" class="muted" text-anchor="middle">p90</text><text x="773.0" y="168.0" text-anchor="middle">25</text>
<rect x="792.0" y="165.9" width="34" height="134.1" rx="4" class="p99"/><text x="809.0" y="316.0" class="muted" text-anchor="middle">p99</text><text x="809.0" y="159.9" text-anchor="middle">35</text>
<text x="771.0" y="334.0" text-anchor="middle">composition_read_current</text>
<rect x="870.0" y="189.5" width="34" height="110.5" rx="4" class="p50"/><text x="887.0" y="316.0" class="muted" text-anchor="middle">p50</text><text x="887.0" y="183.5" text-anchor="middle">12</text>
<rect x="906.0" y="182.0" width="34" height="118.0" rx="4" class="p90"/><text x="923.0" y="316.0" class="muted" text-anchor="middle">p90</text><text x="923.0" y="176.0" text-anchor="middle">17</text>
<rect x="942.0" y="176.5" width="34" height="123.5" rx="4" class="p99"/><text x="959.0" y="316.0" class="muted" text-anchor="middle">p99</text><text x="959.0" y="170.5" text-anchor="middle">22</text>
<text x="921.0" y="334.0" text-anchor="middle">composition_revision_history</text>
<rect x="1020.0" y="167.4" width="34" height="132.6" rx="4" class="p50"/><text x="1037.0" y="316.0" class="muted" text-anchor="middle">p50</text><text x="1037.0" y="161.4" text-anchor="middle">33</text>
<rect x="1056.0" y="160.6" width="34" height="139.4" rx="4" class="p90"/><text x="1073.0" y="316.0" class="muted" text-anchor="middle">p90</text><text x="1073.0" y="154.6" text-anchor="middle">44</text>
<rect x="1092.0" y="153.5" width="34" height="146.5" rx="4" class="p99"/><text x="1109.0" y="316.0" class="muted" text-anchor="middle">p99</text><text x="1109.0" y="147.5" text-anchor="middle">60</text>
<text x="1071.0" y="334.0" text-anchor="middle">composition_update</text>
<rect x="1170.0" y="164.6" width="34" height="135.4" rx="4" class="p50"/><text x="1187.0" y="316.0" class="muted" text-anchor="middle">p50</text><text x="1187.0" y="158.6" text-anchor="middle">37</text>
<rect x="1206.0" y="143.7" width="34" height="156.3" rx="4" class="p90"/><text x="1223.0" y="316.0" class="muted" text-anchor="middle">p90</text><text x="1223.0" y="137.7" text-anchor="middle">92</text>
<rect x="1242.0" y="141.1" width="34" height="158.9" rx="4" class="p99"/><text x="1259.0" y="316.0" class="muted" text-anchor="middle">p99</text><text x="1259.0" y="135.1" text-anchor="middle">103</text>
<text x="1221.0" y="334.0" text-anchor="middle">contribution_commit</text>
<rect x="1320.0" y="184.3" width="34" height="115.7" rx="4" class="p50"/><text x="1337.0" y="316.0" class="muted" text-anchor="middle">p50</text><text x="1337.0" y="178.3" text-anchor="middle">16</text>
<rect x="1356.0" y="177.9" width="34" height="122.1" rx="4" class="p90"/><text x="1373.0" y="316.0" class="muted" text-anchor="middle">p90</text><text x="1373.0" y="171.9" text-anchor="middle">21</text>
<rect x="1392.0" y="176.0" width="34" height="124.0" rx="4" class="p99"/><text x="1409.0" y="316.0" class="muted" text-anchor="middle">p99</text><text x="1409.0" y="170.0" text-anchor="middle">23</text>
<text x="1371.0" y="334.0" text-anchor="middle">contribution_read</text>
<rect x="1470.0" y="188.7" width="34" height="111.3" rx="4" class="p50"/><text x="1487.0" y="316.0" class="muted" text-anchor="middle">p50</text><text x="1487.0" y="182.7" text-anchor="middle">13</text>
<rect x="1506.0" y="183.8" width="34" height="116.2" rx="4" class="p90"/><text x="1523.0" y="316.0" class="muted" text-anchor="middle">p90</text><text x="1523.0" y="177.8" text-anchor="middle">16</text>
<rect x="1542.0" y="174.5" width="34" height="125.5" rx="4" class="p99"/><text x="1559.0" y="316.0" class="muted" text-anchor="middle">p99</text><text x="1559.0" y="168.5" text-anchor="middle">24</text>
<text x="1521.0" y="334.0" text-anchor="middle">directory_create</text>
<rect x="1620.0" y="188.7" width="34" height="111.3" rx="4" class="p50"/><text x="1637.0" y="316.0" class="muted" text-anchor="middle">p50</text><text x="1637.0" y="182.7" text-anchor="middle">13</text>
<rect x="1656.0" y="181.0" width="34" height="119.0" rx="4" class="p90"/><text x="1673.0" y="316.0" class="muted" text-anchor="middle">p90</text><text x="1673.0" y="175.0" text-anchor="middle">18</text>
<rect x="1692.0" y="175.6" width="34" height="124.4" rx="4" class="p99"/><text x="1709.0" y="316.0" class="muted" text-anchor="middle">p99</text><text x="1709.0" y="169.6" text-anchor="middle">23</text>
<text x="1671.0" y="334.0" text-anchor="middle">directory_read</text>
<rect x="1770.0" y="178.3" width="34" height="121.7" rx="4" class="p50"/><text x="1787.0" y="316.0" class="muted" text-anchor="middle">p50</text><text x="1787.0" y="172.3" text-anchor="middle">20</text>
<rect x="1806.0" y="170.4" width="34" height="129.6" rx="4" class="p90"/><text x="1823.0" y="316.0" class="muted" text-anchor="middle">p90</text><text x="1823.0" y="164.4" text-anchor="middle">29</text>
<rect x="1842.0" y="168.2" width="34" height="131.8" rx="4" class="p99"/><text x="1859.0" y="316.0" class="muted" text-anchor="middle">p99</text><text x="1859.0" y="162.2" text-anchor="middle">32</text>
<text x="1821.0" y="334.0" text-anchor="middle">directory_update</text>
<rect x="1920.0" y="179.5" width="34" height="120.5" rx="4" class="p50"/><text x="1937.0" y="316.0" class="muted" text-anchor="middle">p50</text><text x="1937.0" y="173.5" text-anchor="middle">19</text>
<rect x="1956.0" y="174.3" width="34" height="125.7" rx="4" class="p90"/><text x="1973.0" y="316.0" class="muted" text-anchor="middle">p90</text><text x="1973.0" y="168.3" text-anchor="middle">24</text>
<rect x="1992.0" y="174.1" width="34" height="125.9" rx="4" class="p99"/><text x="2009.0" y="316.0" class="muted" text-anchor="middle">p99</text><text x="2009.0" y="168.1" text-anchor="middle">24</text>
<text x="1971.0" y="334.0" text-anchor="middle">ehr_create</text>
<rect x="2070.0" y="187.3" width="34" height="112.7" rx="4" class="p50"/><text x="2087.0" y="316.0" class="muted" text-anchor="middle">p50</text><text x="2087.0" y="181.3" text-anchor="middle">14</text>
<rect x="2106.0" y="177.7" width="34" height="122.3" rx="4" class="p90"/><text x="2123.0" y="316.0" class="muted" text-anchor="middle">p90</text><text x="2123.0" y="171.7" text-anchor="middle">21</text>
<rect x="2142.0" y="167.1" width="34" height="132.9" rx="4" class="p99"/><text x="2159.0" y="316.0" class="muted" text-anchor="middle">p99</text><text x="2159.0" y="161.1" text-anchor="middle">33</text>
<text x="2121.0" y="334.0" text-anchor="middle">ehr_read</text>
<rect x="2220.0" y="186.5" width="34" height="113.5" rx="4" class="p50"/><text x="2237.0" y="316.0" class="muted" text-anchor="middle">p50</text><text x="2237.0" y="180.5" text-anchor="middle">14</text>
<rect x="2256.0" y="180.6" width="34" height="119.4" rx="4" class="p90"/><text x="2273.0" y="316.0" class="muted" text-anchor="middle">p90</text><text x="2273.0" y="174.6" text-anchor="middle">18</text>
<rect x="2292.0" y="179.5" width="34" height="120.5" rx="4" class="p99"/><text x="2309.0" y="316.0" class="muted" text-anchor="middle">p99</text><text x="2309.0" y="173.5" text-anchor="middle">19</text>
<text x="2271.0" y="334.0" text-anchor="middle">ehr_status_read</text>
<rect x="2370.0" y="178.1" width="34" height="121.9" rx="4" class="p50"/><text x="2387.0" y="316.0" class="muted" text-anchor="middle">p50</text><text x="2387.0" y="172.1" text-anchor="middle">21</text>
<rect x="2406.0" y="171.1" width="34" height="128.9" rx="4" class="p90"/><text x="2423.0" y="316.0" class="muted" text-anchor="middle">p90</text><text x="2423.0" y="165.1" text-anchor="middle">28</text>
<rect x="2442.0" y="169.9" width="34" height="130.1" rx="4" class="p99"/><text x="2459.0" y="316.0" class="muted" text-anchor="middle">p99</text><text x="2459.0" y="163.9" text-anchor="middle">29</text>
<text x="2421.0" y="334.0" text-anchor="middle">ehr_status_update</text>
<rect x="2520.0" y="169.4" width="34" height="130.6" rx="4" class="p50"/><text x="2537.0" y="316.0" class="muted" text-anchor="middle">p50</text><text x="2537.0" y="163.4" text-anchor="middle">30</text>
<rect x="2556.0" y="164.7" width="34" height="135.3" rx="4" class="p90"/><text x="2573.0" y="316.0" class="muted" text-anchor="middle">p90</text><text x="2573.0" y="158.7" text-anchor="middle">37</text>
<rect x="2592.0" y="160.3" width="34" height="139.7" rx="4" class="p99"/><text x="2609.0" y="316.0" class="muted" text-anchor="middle">p99</text><text x="2609.0" y="154.3" text-anchor="middle">45</text>
<text x="2571.0" y="334.0" text-anchor="middle">stored_query_execute</text>
<rect x="2670.0" y="181.5" width="34" height="118.5" rx="4" class="p50"/><text x="2687.0" y="316.0" class="muted" text-anchor="middle">p50</text><text x="2687.0" y="175.5" text-anchor="middle">18</text>
<rect x="2706.0" y="173.5" width="34" height="126.5" rx="4" class="p90"/><text x="2723.0" y="316.0" class="muted" text-anchor="middle">p90</text><text x="2723.0" y="167.5" text-anchor="middle">25</text>
<rect x="2742.0" y="168.7" width="34" height="131.3" rx="4" class="p99"/><text x="2759.0" y="316.0" class="muted" text-anchor="middle">p99</text><text x="2759.0" y="162.7" text-anchor="middle">31</text>
<text x="2721.0" y="334.0" text-anchor="middle">tags_put</text>
<rect x="2820.0" y="187.7" width="34" height="112.3" rx="4" class="p50"/><text x="2837.0" y="316.0" class="muted" text-anchor="middle">p50</text><text x="2837.0" y="181.7" text-anchor="middle">13</text>
<rect x="2856.0" y="182.7" width="34" height="117.3" rx="4" class="p90"/><text x="2873.0" y="316.0" class="muted" text-anchor="middle">p90</text><text x="2873.0" y="176.7" text-anchor="middle">17</text>
<rect x="2892.0" y="179.3" width="34" height="120.7" rx="4" class="p99"/><text x="2909.0" y="316.0" class="muted" text-anchor="middle">p99</text><text x="2909.0" y="173.3" text-anchor="middle">19</text>
<text x="2871.0" y="334.0" text-anchor="middle">tags_read</text>
<rect x="2970.0" y="160.3" width="34" height="139.7" rx="4" class="p50"/><text x="2987.0" y="316.0" class="muted" text-anchor="middle">p50</text><text x="2987.0" y="154.3" text-anchor="middle">45</text>
<rect x="3006.0" y="148.0" width="34" height="152.0" rx="4" class="p90"/><text x="3023.0" y="316.0" class="muted" text-anchor="middle">p90</text><text x="3023.0" y="142.0" text-anchor="middle">76</text>
<rect x="3042.0" y="140.8" width="34" height="159.2" rx="4" class="p99"/><text x="3059.0" y="316.0" class="muted" text-anchor="middle">p99</text><text x="3059.0" y="134.8" text-anchor="middle">105</text>
<text x="3021.0" y="334.0" text-anchor="middle">template_get</text>
<rect x="3120.0" y="161.0" width="34" height="139.0" rx="4" class="p50"/><text x="3137.0" y="316.0" class="muted" text-anchor="middle">p50</text><text x="3137.0" y="155.0" text-anchor="middle">43</text>
<rect x="3156.0" y="153.6" width="34" height="146.4" rx="4" class="p90"/><text x="3173.0" y="316.0" class="muted" text-anchor="middle">p90</text><text x="3173.0" y="147.6" text-anchor="middle">60</text>
<rect x="3192.0" y="148.8" width="34" height="151.2" rx="4" class="p99"/><text x="3209.0" y="316.0" class="muted" text-anchor="middle">p99</text><text x="3209.0" y="142.8" text-anchor="middle">74</text>
<text x="3171.0" y="334.0" text-anchor="middle">template_list</text>
<rect x="3270.0" y="129.2" width="34" height="170.8" rx="4" class="p50"/><text x="3287.0" y="316.0" class="muted" text-anchor="middle">p50</text><text x="3287.0" y="123.2" text-anchor="middle">174</text>
<rect x="3306.0" y="121.1" width="34" height="178.9" rx="4" class="p90"/><text x="3323.0" y="316.0" class="muted" text-anchor="middle">p90</text><text x="3323.0" y="115.1" text-anchor="middle">248</text>
<rect x="3342.0" y="108.1" width="34" height="191.9" rx="4" class="p99"/><text x="3359.0" y="316.0" class="muted" text-anchor="middle">p99</text><text x="3359.0" y="102.1" text-anchor="middle">436</text>
<text x="3321.0" y="334.0" text-anchor="middle">ward_query</text>
</svg>
