<svg xmlns="http://www.w3.org/2000/svg" width="760" height="400" role="img" viewBox="0 0 760 400"><style>text{fill:#52514e;font:12px -apple-system,&apos;Segoe UI&apos;,Helvetica,Arial,sans-serif}.title{fill:#0b0b0b;font-weight:600}.muted{fill:#8a8880;font-size:11px}.grid{stroke:#e4e2dd;stroke-width:1}.measured{fill:#2a78d6}.earned{fill:#1baf7a;font-weight:600}.slo{stroke:#b3261e;stroke-width:1.5;stroke-dasharray:6 4}.slotext{fill:#b3261e;font-size:11px}.curve,.knee{stroke-width:2}.curve{stroke:#2a78d6;fill:none}.knee{stroke:#1baf7a;stroke-dasharray:2 3}@media (prefers-color-scheme:dark){text{fill:#c3c2b7}.title{fill:#fff}.muted{fill:#8f8e85}.grid{stroke:#3a3a38}.measured{fill:#3987e5}.earned{fill:#26c78d}.slo{stroke:#e5484d}.slotext{fill:#e5484d}.curve{stroke:#3987e5}.knee{stroke:#26c78d}}</style><text x="24" y="28" class="title">Latency-throughput curve — step-load stress to the maximum sustainable throughput</text><text x="24" y="44" class="muted">Short intense load steps (120 s hold) on the cnf.scale.10k corpus · exploration only — never a conformance record</text><text x="24" y="59" class="muted">Circles hold the envelope, crosses breach it; the dotted line is the last rate held inside the envelope — the knee.</text><line x1="90" x2="90" y1="80" y2="330" class="grid"/><text x="90" y="346" class="muted" text-anchor="middle">1/s</text><line x1="251.5" x2="251.5" y1="80" y2="330" class="grid"/><text x="251.5" y="346" class="muted" text-anchor="middle">10/s</text><line x1="412.9" x2="412.9" y1="80" y2="330" class="grid"/><text x="412.9" y="346" class="muted" text-anchor="middle">100/s</text><line x1="574.4" x2="574.4" y1="80" y2="330" class="grid"/><text x="574.4" y="346" class="muted" text-anchor="middle">1000/s</text><line x1="90" x2="700" y1="330" y2="330" class="grid"/><text x="82" y="334" class="muted" text-anchor="end">1 ms</text><line x1="90" x2="700" y1="263.8" y2="263.8" class="grid"/><text x="82" y="267.8" class="muted" text-anchor="end">10 ms</text><line x1="90" x2="700" y1="197.7" y2="197.7" class="grid"/><text x="82" y="201.7" class="muted" text-anchor="end">100 ms</text><line x1="90" x2="700" y1="131.5" y2="131.5" class="grid"/><text x="82" y="135.5" class="muted" text-anchor="end">1000 ms</text><line x1="90" x2="700" y1="131.5" y2="131.5" class="slo"/><text x="696" y="125.5" class="slotext" text-anchor="end">p99 budget</text><path d="M138.6,196.0 L187.2,200.9 L235.8,191.2 L284.4,198.1 L333.0,196.0 L381.6,202.5 L430.2,204.9 L478.8,214.6 L527.4,189.2 L535.7,182.7 L543.1,165.7 L555.9,150.8 L576.0,117.2" class="curve"/><circle cx="138.6" cy="196" r="5" class="measured"/><circle cx="187.2" cy="200.9" r="5" class="measured"/><circle cx="235.8" cy="191.2" r="5" class="measured"/><circle cx="284.4" cy="198.1" r="5" class="measured"/><circle cx="333" cy="196" r="5" class="measured"/><circle cx="381.6" cy="202.5" r="5" class="measured"/><circle cx="430.2" cy="204.9" r="5" class="measured"/><circle cx="478.8" cy="214.6" r="5" class="measured"/><circle cx="527.4" cy="189.2" r="5" class="measured"/><path stroke-width="2" d="M530.7,177.7 L540.7,187.7 M530.7,187.7 L540.7,177.7" class="slo"/><path stroke-width="2" d="M538.1,160.7 L548.1,170.7 M538.1,170.7 L548.1,160.7" class="slo"/><path stroke-width="2" d="M550.9,145.8 L560.9,155.8 M550.9,155.8 L560.9,145.8" class="slo"/><path stroke-width="2" d="M571.0,112.2 L581.0,122.2 M571.0,122.2 L581.0,112.2" class="slo"/><line x1="527.4" x2="527.4" y1="80" y2="330" class="knee"/><text x="521.4" y="320" class="earned" text-anchor="end">max sustainable 512/s</text></svg>