<svg xmlns="http://www.w3.org/2000/svg" viewBox="0 0 760 330" role="img" aria-label="p50 latency per operation class">
<style>
text { fill: #52514e; font: 12px -apple-system, 'Segoe UI', Helvetica, Arial, sans-serif; }
.title { fill: #0b0b0b; font-weight: 600; }
.muted { fill: #8a8880; font-size: 11px; }
.grid { stroke: #e4e2dd; stroke-width: 1; }
.s1 { fill: #2a78d6; } .s1s { stroke: #2a78d6; }
.s2 { fill: #1baf7a; } .s2s { stroke: #1baf7a; }
@media (prefers-color-scheme: dark) {
text { fill: #c3c2b7; }
.title { fill: #ffffff; }
.muted { fill: #8f8e85; }
.grid { stroke: #3a3a38; }
.s1 { fill: #3987e5; } .s1s { stroke: #3987e5; }
.s2 { fill: #199e70; } .s2s { stroke: #199e70; }
}
</style>
<text x="16" y="22" class="title">p50 latency per operation class (log scale)</text>
<rect class="s1" x="170" y="30" width="10" height="10" rx="2"/>
<text x="186.0" y="39">ehrbase-rs</text>
<rect class="s2" x="320" y="30" width="10" height="10" rx="2"/>
<text x="336.0" y="39">ehrbase-java</text>
<line class="grid" x1="620.0" y1="58" x2="620.0" y2="304.0"/>
<text class="muted" x="620.0" y="320.0" text-anchor="middle">100.0ms</text>
<text x="160.0" y="75.0" text-anchor="end">aql-patient</text>
<rect class="s1" x="170" y="62.0" width="256.7" height="10" rx="4"/>
<text class="muted" x="430.7" y="71.0">37.2ms</text>
<rect class="s2" x="170" y="74.0" width="238.1" height="10" rx="4"/>
<text class="muted" x="412.1" y="83.0">33.8ms</text>
<text x="160.0" y="109.0" text-anchor="end">aql-ward</text>
<rect class="s1" x="170" y="96.0" width="256.1" height="10" rx="4"/>
<text class="muted" x="430.1" y="105.0">37.1ms</text>
<rect class="s2" x="170" y="108.0" width="152.5" height="10" rx="4"/>
<text class="muted" x="326.5" y="117.0">21.8ms</text>
<text x="160.0" y="143.0" text-anchor="end">dir-read</text>
<rect class="s1" x="170" y="130.0" width="102.5" height="10" rx="4"/>
<text class="muted" x="276.5" y="139.0">16.9ms</text>
<rect class="s2" x="170" y="142.0" width="173.7" height="10" rx="4"/>
<text class="muted" x="347.7" y="151.0">24.3ms</text>
<text x="160.0" y="177.0" text-anchor="end">dir-update</text>
<rect class="s1" x="170" y="164.0" width="380.2" height="10" rx="4"/>
<text class="muted" x="554.2" y="173.0">70.0ms</text>
<rect class="s2" x="170" y="176.0" width="396.8" height="10" rx="4"/>
<text class="muted" x="570.8" y="185.0">76.2ms</text>
<text x="160.0" y="211.0" text-anchor="end">ehr-create</text>
<rect class="s1" x="170" y="198.0" width="149.8" height="10" rx="4"/>
<text class="muted" x="323.8" y="207.0">21.5ms</text>
<rect class="s2" x="170" y="210.0" width="251.4" height="10" rx="4"/>
<text class="muted" x="425.4" y="219.0">36.2ms</text>
<text x="160.0" y="245.0" text-anchor="end">ehr-read</text>
<rect class="s1" x="170" y="232.0" width="370.6" height="10" rx="4"/>
<text class="muted" x="544.6" y="241.0">66.6ms</text>
<rect class="s2" x="170" y="244.0" width="367.6" height="10" rx="4"/>
<text class="muted" x="541.6" y="253.0">65.6ms</text>
<text x="160.0" y="279.0" text-anchor="end">status-update</text>
<rect class="s1" x="170" y="266.0" width="209.4" height="10" rx="4"/>
<text class="muted" x="383.4" y="275.0">29.2ms</text>
<rect class="s2" x="170" y="278.0" width="272.9" height="10" rx="4"/>
<text class="muted" x="446.9" y="287.0">40.4ms</text>
</svg>
